<svg width="120" height="40" viewBox="0 0 173 40" fill="none" xmlns="http://www.w3.org/2000/svg">
<path d="M30.8343 0H9.15663C4.11002 0 0 4.11002 0 9.15662V30.8434C0 35.89 4.11002 40 9.15663 40H13.4758H23.0143H30.8434C35.89 40 40 35.89 40 30.8434V9.15662C40 4.11002 35.89 0 30.8343 0ZM37.5358 30.8434C37.5358 34.5351 34.526 37.5449 30.8343 37.5449H23.9418C24.1146 36.8356 24.2146 36.0718 24.251 35.2717C24.4601 30.7252 21.7686 24.742 23.5599 22.7324C25.3603 20.7229 29.6431 22.4687 33.1348 20.6683C36.6265 18.8679 34.9352 13.6304 34.9352 13.6304C34.9352 13.6304 32.9802 13.4212 30.3887 13.203C27.7972 12.9939 23.9873 11.0389 23.2507 9.76586C22.5051 8.49284 19.2316 9.02933 19.2316 9.02933C16.9584 4.26461 14.7397 4.00091 14.7397 4.00091C13.4212 7.86542 13.8941 11.0843 13.8941 11.0843C13.8941 11.0843 13.8941 11.0843 12.3574 12.6756C11.5026 13.5576 9.9659 16.722 8.76563 19.368C9.59309 18.777 10.5206 18.2132 11.5663 17.6949V21.2412C11.5663 21.2412 12.0391 19.6045 15.5308 17.6949C15.5308 17.6949 16.1673 20.6047 14.1032 22.9325C14.1032 22.9325 16.6401 23.6236 17.0675 26.0514C17.4858 28.4883 19.8682 28.4883 20.0318 29.1703C20.1955 29.8613 19.8772 33.1348 17.2857 33.7713C14.6942 34.4078 11.9391 34.2441 12.4756 37.0539C12.5028 37.2085 12.5392 37.363 12.5847 37.5267H9.16572C5.47397 37.5267 2.4642 34.5169 2.4642 30.8252V9.13844C2.4642 5.44669 5.47397 2.43692 9.16572 2.43692H30.8525C34.5442 2.43692 37.554 5.44669 37.554 9.13844V30.8434H37.5358Z" fill="#172554"/>
<path d="M34.5443 28.9248L34.5534 30.1069C34.5625 30.707 34.0805 31.198 33.4804 31.2071L31.68 31.2253L31.6982 33.0257C31.7073 33.6258 31.2253 34.1169 30.6252 34.126L29.4431 34.1351C28.843 34.1441 28.352 33.6622 28.3429 33.0621L28.3247 31.2617L26.5243 31.2799C25.9241 31.289 25.4331 30.807 25.424 30.2069L25.4149 29.0248C25.4058 28.4247 25.8878 27.9336 26.4879 27.9246L28.2883 27.9064L28.2701 26.106C28.261 25.5058 28.743 25.0148 29.3431 25.0057L30.5252 24.9966C31.1253 24.9875 31.6163 25.4694 31.6254 26.0696L31.6436 27.87L33.444 27.8518C34.0532 27.8427 34.5443 28.3246 34.5443 28.9248Z" fill="#2563EB"/>
<path d="M159.27 28.9286L160.959 24.8326L161.369 25.0886C162.291 25.6518 163.622 26.343 164.748 26.343C165.183 26.343 165.721 26.1126 165.721 25.6006C165.721 24.8582 164.927 24.8326 164.39 24.7558C162.188 24.4486 160.14 23.5526 160.14 20.9926C160.14 17.5878 163.571 16.231 166.489 16.231C168.179 16.231 170.278 16.5638 171.763 17.383L170.15 21.1462C169.305 20.5318 168.179 20.0198 167.103 20.0198C166.694 20.0198 166.156 20.1478 166.156 20.6342C166.156 21.2998 166.873 21.351 167.795 21.5046C170.15 21.8886 172.07 22.7078 172.07 25.447C172.07 28.9798 168.563 30.439 165.491 30.439C163.34 30.439 161.241 29.7734 159.27 28.9286Z" fill="#2563EB"/>
<path d="M157.283 12.1606V16.7174L159.484 16.615V21.8118L157.283 21.6838V30.1318H150.627V21.6838L149.014 21.8118V16.615L150.627 16.7174V12.1606H157.283Z" fill="#2563EB"/>
<path d="M148.88 24.4486H139.28C139.28 25.5494 139.459 26.7782 140.841 26.7782C141.533 26.7782 142.045 26.2918 142.173 25.6518H148.598C147.728 28.9286 144.067 30.439 140.944 30.439C136.669 30.439 132.752 28.2374 132.752 23.5526C132.752 19.047 136.233 16.231 140.56 16.231C145.398 16.231 149.213 19.3542 148.88 24.4486ZM139.28 21.6326H142.377C142.377 20.711 141.712 19.8662 140.765 19.8662C139.766 19.8662 139.28 20.6854 139.28 21.6326Z" fill="#2563EB"/>
<path d="M115.724 30.1318V10.8294H124.607C129.112 10.8294 132.44 13.1334 132.44 17.9206C132.44 21.863 129.983 24.3206 126.066 24.3206H122.482V30.1318H115.724ZM122.482 16.103V19.4566H123.173C124.402 19.4566 125.733 19.2518 125.733 17.6902C125.733 16.1798 124.3 16.103 123.148 16.103H122.482Z" fill="#2563EB"/>
<path d="M107.107 30.1318V16.5382H113.711V30.1318H107.107ZM110.409 9.16541C112.483 9.16541 114.044 10.3686 114.044 12.3398C114.044 14.567 112.303 15.5398 110.409 15.5398C108.515 15.5398 106.774 14.567 106.774 12.3398C106.774 10.3686 108.335 9.16541 110.409 9.16541Z" fill="#172554"/>
<path d="M97.3088 21.4022C96.208 21.4022 95.6192 22.3238 95.6192 23.3222C95.6192 24.3462 96.208 25.2678 97.3088 25.2678C98.3328 25.2678 99.024 24.1926 99.024 23.271C99.024 22.3238 98.3072 21.4022 97.3088 21.4022ZM99.2032 30.1318L99.3312 28.1094H99.1776C98.0768 29.4918 96.5152 30.439 94.7488 30.439C91.0624 30.439 89.1168 26.7014 89.1168 23.4502C89.1168 20.071 90.9344 16.231 94.7744 16.231C96.3104 16.231 97.9488 17.1014 98.8704 18.3558H99.1008L98.7936 15.1046V9.37018H105.398V30.1318H99.2032Z" fill="#172554"/>
<path d="M88.6497 24.4486H79.0497C79.0497 25.5494 79.2289 26.7782 80.6113 26.7782C81.3025 26.7782 81.8145 26.2918 81.9425 25.6518H88.3681C87.4977 28.9286 83.8369 30.439 80.7137 30.439C76.4385 30.439 72.5217 28.2374 72.5217 23.5526C72.5217 19.047 76.0033 16.231 80.3297 16.231C85.1681 16.231 88.9825 19.3542 88.6497 24.4486ZM79.0497 21.6326H82.1473C82.1473 20.711 81.4817 19.8662 80.5345 19.8662C79.5361 19.8662 79.0497 20.6854 79.0497 21.6326Z" fill="#172554"/>
<path d="M46.4 30.1318L49.5232 10.8294H56.7424L59.4048 20.967H59.584C59.712 20.1222 59.84 19.2262 60.0704 18.407L62.2464 10.8294H69.3888L72.5632 30.1318H65.7792L64.832 19.559H64.704C64.576 20.199 64.448 20.8646 64.2432 21.479L61.4528 30.1318H57.3568L54.848 21.9654C54.6432 21.1462 54.464 20.3782 54.4128 19.559H54.1824C54.1312 20.327 54.08 21.1206 54.0032 21.8886L53.184 30.1318H46.4Z" fill="#172554"/>
</svg>
