<svg width="78" height="26" viewBox="-20 0 170 26" fill="none" xmlns="http://www.w3.org/2000/svg">
<path d="M60.2768 25.4066V12.1788C60.2768 9.6451 58.7418 8.49906 56.6562 8.49906C54.13 8.49906 52.0995 10.4874 52.0995 13.0694V25.4066H47.3913V12.1788C47.3913 9.6451 45.7531 8.49906 43.6744 8.49906C41.1482 8.49906 39.214 10.4874 39.214 13.1247V25.4066H34.5059V4.72264H39.214V6.71096C40.4048 5.21972 42.4836 4.12891 44.6655 4.12891C47.9351 4.12891 49.8211 5.27495 51.1565 7.31159C52.7396 5.12306 55.665 4.12891 57.7988 4.12891C63.2022 4.12891 64.9849 7.56013 64.9849 11.737V25.4066H60.2768Z" fill="#253368"/>
<path d="M70.4297 4.57036V0H75.1378V4.57036H70.4297ZM70.4297 25.4063V6.95911H75.1378V25.4063H70.4297Z" fill="#253368"/>
<path d="M87.7274 25.7031C83.0192 25.7031 80.0457 24.7573 80.0457 18.6957V9.09931V4.72225V0H84.7538V4.72225H88.4708V9.09931H84.7538V18.5438C84.7538 20.7323 85.5454 21.2294 87.6792 21.2294C87.927 21.2294 88.5189 21.1811 88.5189 21.1811V25.6548C88.5189 25.6548 87.927 25.7031 87.7274 25.7031Z" fill="#253368"/>
<path d="M105.617 9.6451C104.529 8.85116 103.538 8.60262 102.643 8.60262C100.014 8.60262 98.1347 10.9361 98.1347 14.9128V25.4066H93.4265V4.72264H98.1347V7.20803C99.6215 5.17139 101.507 4.12891 103.683 4.12891C105.321 4.12891 106.457 4.62599 107.751 5.66847L105.617 9.6451Z" fill="#253368"/>
<path d="M123.162 25.4066V23.9153C121.276 25.3583 119.198 26.0003 116.72 26.0003C111.516 26.0003 108.99 22.866 108.99 19.0412C108.99 14.1671 113.849 11.4884 120.189 11.4884H123.259C123.259 9.00297 122.219 8.10547 119.143 8.10547C116.568 8.10547 114.586 8.45066 112.796 9.25151L111.158 5.72363C113.092 4.57759 116.314 4.13574 118.592 4.13574C124.339 4.13574 127.857 5.82719 127.857 10.3009V25.4066H123.162ZM123.162 15.3131H121.82C116.465 15.3131 113.794 16.4039 113.794 19.0412C113.794 21.0295 116.024 21.8235 118.007 21.8235C120.086 21.8235 121.276 21.4783 123.162 20.1803V15.3131Z" fill="#253368"/>
<path d="M20.6498 12.6272L25.2822 0H18.8051L14.1658 12.6272L18.8051 25.2544H25.2822L20.6498 12.6272Z" fill="#CCD7EE"/>
<path d="M6.47714 0H0L3.58618 9.75517L4.63931 12.6272L0 25.2544H6.47714L11.1165 12.6272L6.47714 0Z" fill="#253368"/>
</svg>
