<svg width="130" height="44" viewBox="0 0 257 44" fill="none" xmlns="http://www.w3.org/2000/svg">
<path d="M65.9677 26.9088C65.5035 27.7325 64.7996 28.3944 63.8562 28.8946C62.9127 29.3948 61.7536 29.6434 60.3848 29.6434C59.052 29.6434 57.8569 29.4068 56.8026 28.9335C55.7483 28.4603 54.9037 27.7984 54.2748 26.9478C53.6458 26.0972 53.2834 25.1148 53.1905 24.0036H56.581C56.6738 24.8542 57.0393 25.588 57.6772 26.199C58.3152 26.81 59.1718 27.1155 60.247 27.1155C61.2085 27.1155 61.9573 26.8549 62.4844 26.3368C63.0116 25.8186 63.2751 25.1507 63.2751 24.336C63.2751 23.6322 63.0804 23.0541 62.6911 22.5989C62.3017 22.1466 61.8195 21.7902 61.2474 21.5296C60.6724 21.269 59.8876 20.9755 58.8873 20.64C57.6653 20.2507 56.6679 19.8613 55.9011 19.4719C55.1314 19.0826 54.4784 18.5195 53.9423 17.7767C53.4062 17.0369 53.1366 16.0635 53.1366 14.8594C53.1366 13.8052 53.3972 12.8767 53.9154 12.083C54.4335 11.2863 55.1763 10.6723 56.1377 10.235C57.0992 9.80068 58.2103 9.58203 59.4713 9.58203C61.472 9.58203 63.0595 10.0642 64.2366 11.0257C65.4136 11.9901 66.0845 13.2481 66.2493 14.8025H62.8318C62.703 14.0627 62.3556 13.4278 61.7895 12.9006C61.2234 12.3735 60.4507 12.1099 59.4683 12.1099C58.5787 12.1099 57.8659 12.3375 57.3298 12.7898C56.7936 13.2451 56.5241 13.898 56.5241 14.7486C56.5241 15.4165 56.7098 15.9676 57.0812 16.4019C57.4526 16.8362 57.9198 17.1807 58.4829 17.4293C59.049 17.6779 59.8217 17.9714 60.8042 18.3038C62.0441 18.6932 63.0595 19.0856 63.8472 19.4839C64.6349 19.8823 65.2998 20.4603 65.8479 21.2211C66.393 21.9819 66.6686 22.9822 66.6686 24.2222C66.6596 25.1896 66.429 26.0852 65.9677 26.9088Z" fill="black"/>
<path d="M92.9448 15.6147C94.0291 16.7619 94.5712 18.4032 94.5712 20.5327V29.4492H91.4053V20.8652C91.4053 19.5323 91.0729 18.499 90.405 17.7682C89.737 17.0374 88.8205 16.672 87.6554 16.672C86.4154 16.672 85.427 17.0644 84.6962 17.8521C83.9654 18.6398 83.6 19.7929 83.6 21.3115V29.4522H80.4342V20.8682C80.4342 19.5353 80.1017 18.502 79.4338 17.7712C78.7659 17.0404 77.8494 16.675 76.6843 16.675C75.4443 16.675 74.4559 17.0674 73.7251 17.8551C72.9943 18.6428 72.6289 19.7959 72.6289 21.3144V29.4552H69.463V14.1471H72.6289V17.3429C73.0182 16.2317 73.6652 15.3811 74.5727 14.7881C75.4802 14.195 76.5435 13.8985 77.7685 13.8985C79.0474 13.8985 80.1526 14.213 81.0871 14.842C82.0216 15.471 82.7015 16.3785 83.1298 17.5646C83.5731 16.4174 84.2859 15.5189 85.2683 14.8689C86.2507 14.222 87.3619 13.8955 88.6019 13.8955C90.4109 13.8925 91.8606 14.4676 92.9448 15.6147Z" fill="black"/>
<path d="M107.501 14.9765C108.484 15.6624 109.178 16.5699 109.586 17.6991V14.1439H112.752V29.452H109.586V25.8967C109.178 27.0259 108.484 27.9334 107.501 28.6193C106.519 29.3052 105.336 29.6466 103.946 29.6466C102.613 29.6466 101.421 29.3321 100.376 28.7032C99.3305 28.0742 98.5098 27.1667 97.9168 25.9806C97.3237 24.7945 97.0272 23.3958 97.0272 21.7844C97.0272 20.191 97.3237 18.8013 97.9168 17.6182C98.5098 16.4321 99.3275 15.5246 100.376 14.8956C101.421 14.2667 102.613 13.9522 103.946 13.9522C105.333 13.9492 106.519 14.2906 107.501 14.9765ZM101.541 18.0735C100.699 18.972 100.277 20.209 100.277 21.7814C100.277 23.3569 100.699 24.5909 101.541 25.4894C102.383 26.3879 103.509 26.8372 104.916 26.8372C105.806 26.8372 106.603 26.6275 107.307 26.2112C108.01 25.7949 108.564 25.2079 108.975 24.4471C109.382 23.6863 109.586 22.7998 109.586 21.7814C109.586 20.7811 109.382 19.8975 108.975 19.1277C108.567 18.358 108.01 17.768 107.307 17.3486C106.603 16.9323 105.806 16.7227 104.916 16.7227C103.509 16.7257 102.386 17.1749 101.541 18.0735Z" fill="black"/>
<path d="M121.494 14.7672C122.456 14.1831 123.567 13.8926 124.828 13.8926V17.337H123.885C122.495 17.337 121.381 17.6754 120.536 18.3523C119.694 19.0292 119.272 20.1434 119.272 21.7009V29.4523H116.106V14.1442H119.272V17.1453C119.79 16.1449 120.53 15.3512 121.494 14.7672Z" fill="black"/>
<path d="M135.125 26.6993V29.4488H133.181C131.552 29.4488 130.315 29.0565 129.473 28.2687C128.632 27.481 128.209 26.1721 128.209 24.3391V16.8393H126.014V14.1437H128.209V10.3369H131.405V14.1437H135.101V16.8393H131.405V24.396C131.405 25.2676 131.567 25.8696 131.89 26.2021C132.214 26.5346 132.783 26.7023 133.598 26.7023H135.125V26.6993Z" fill="black"/>
<path d="M146.096 26.978H152.874V29.449H142.927V9.83691H146.093V26.978H146.096Z" fill="black"/>
<path d="M168.587 22.4224H156.807C156.864 23.9978 157.298 25.1629 158.113 25.9237C158.927 26.6844 159.937 27.0618 161.141 27.0618C162.195 27.0618 163.091 26.7923 163.822 26.2561C164.552 25.72 165.002 25.0072 165.169 24.1176H168.56C168.356 25.1929 167.931 26.1453 167.281 26.978C166.631 27.8106 165.789 28.4635 164.753 28.9368C163.717 29.41 162.558 29.6466 161.282 29.6466C159.799 29.6466 158.49 29.3321 157.352 28.7032C156.214 28.0742 155.318 27.1666 154.671 25.9806C154.021 24.7945 153.698 23.3958 153.698 21.7844C153.698 20.191 154.021 18.8013 154.671 17.6182C155.318 16.4321 156.214 15.5246 157.352 14.8956C158.49 14.2666 159.802 13.9521 161.282 13.9521C162.782 13.9521 164.091 14.2636 165.211 14.8836C166.331 15.5036 167.194 16.3572 167.796 17.4385C168.398 18.5227 168.698 19.7297 168.698 21.0626C168.701 21.5777 168.662 22.033 168.587 22.4224ZM164.99 18.4628C164.609 17.7859 164.091 17.2857 163.435 16.9623C162.776 16.6388 162.06 16.477 161.282 16.477C160.042 16.477 159.002 16.8574 158.17 17.6152C157.337 18.376 156.882 19.4961 156.81 20.9757H165.505C165.541 19.9783 165.37 19.1397 164.99 18.4628Z" fill="black"/>
<path d="M181.014 14.9765C181.996 15.6624 182.691 16.5699 183.098 17.6991V14.1439H186.264V29.452H183.098V25.8967C182.691 27.0259 181.996 27.9334 181.014 28.6193C180.031 29.3052 178.848 29.6466 177.458 29.6466C176.125 29.6466 174.933 29.3321 173.888 28.7032C172.843 28.0742 172.022 27.1667 171.429 25.9806C170.836 24.7945 170.54 23.3958 170.54 21.7844C170.54 20.191 170.836 18.8013 171.429 17.6182C172.022 16.4321 172.84 15.5246 173.888 14.8956C174.933 14.2667 176.125 13.9522 177.458 13.9522C178.848 13.9492 180.031 14.2906 181.014 14.9765ZM175.056 18.0735C174.215 18.972 173.792 20.209 173.792 21.7814C173.792 23.3569 174.215 24.5909 175.056 25.4894C175.898 26.3879 177.024 26.8372 178.432 26.8372C179.321 26.8372 180.118 26.6275 180.822 26.2112C181.526 25.7949 182.08 25.2079 182.49 24.4471C182.897 23.6863 183.101 22.7998 183.101 21.7814C183.101 20.7811 182.897 19.8975 182.49 19.1277C182.083 18.358 181.526 17.768 180.822 17.3486C180.118 16.9323 179.321 16.7227 178.432 16.7227C177.024 16.7257 175.898 17.1749 175.056 18.0735Z" fill="black"/>
<path d="M195.007 14.7672C195.968 14.1831 197.08 13.8926 198.34 13.8926V17.337H197.397C196.007 17.337 194.893 17.6754 194.048 18.3523C193.207 19.0292 192.784 20.1434 192.784 21.7009V29.4523H189.619V14.1442H192.784V17.1453C193.303 16.1449 194.042 15.3512 195.007 14.7672Z" fill="black"/>
<path d="M212.998 15.6147C214.074 16.7619 214.61 18.4032 214.61 20.5327V29.4492H211.444V20.8652C211.444 19.4934 211.091 18.4331 210.39 17.6844C209.686 16.9356 208.721 16.5582 207.499 16.5582C206.238 16.5582 205.229 16.9595 204.471 17.7682C203.711 18.5739 203.333 19.754 203.333 21.3115V29.4522H200.167V14.1441H203.333V17.5046C203.741 16.3575 204.426 15.468 205.388 14.839C206.349 14.21 207.461 13.8955 208.721 13.8955C210.498 13.8925 211.923 14.4676 212.998 15.6147Z" fill="black"/>
<path d="M217.922 8.36308C218.294 8.01265 218.785 7.83594 219.396 7.83594C220.007 7.83594 220.501 8.01265 220.882 8.36308C221.262 8.71651 221.451 9.15978 221.451 9.69591C221.451 10.232 221.262 10.6693 220.882 11.0018C220.501 11.3342 220.007 11.502 219.396 11.502C218.785 11.502 218.294 11.3342 217.922 11.0018C217.551 10.6693 217.368 10.235 217.368 9.69591C217.368 9.15978 217.551 8.71651 217.922 8.36308ZM220.978 14.1437V29.4518H217.812V14.1437H220.978Z" fill="black"/>
<path d="M237.205 15.6147C238.28 16.7619 238.817 18.4032 238.817 20.5327V29.4492H235.651V20.8652C235.651 19.4934 235.297 18.4331 234.596 17.6844C233.893 16.9356 232.928 16.5582 231.706 16.5582C230.445 16.5582 229.436 16.9595 228.678 17.7682C227.917 18.5739 227.54 19.754 227.54 21.3115V29.4522H224.374V14.1441H227.54V17.5046C227.947 16.3575 228.633 15.468 229.595 14.839C230.556 14.21 231.667 13.8955 232.928 13.8955C234.704 13.8925 236.13 14.4676 237.205 15.6147Z" fill="black"/>
<path d="M251.75 14.9757C252.732 15.6616 253.427 16.5691 253.834 17.6983V14.1431H257V29.6159C257 31.0416 256.709 32.3055 256.125 33.4077C255.541 34.5099 254.703 35.3755 253.613 36.0045C252.519 36.6335 251.222 36.948 249.725 36.948C247.577 36.948 245.84 36.4388 244.516 35.4204C243.192 34.4021 242.363 33.0213 242.03 31.2812H245.169C245.43 32.1887 245.93 32.8955 246.67 33.4047C247.41 33.9139 248.356 34.1685 249.503 34.1685C250.761 34.1685 251.8 33.7791 252.615 33.0004C253.43 32.2216 253.837 31.0925 253.837 29.6099V25.8869C253.43 27.0161 252.735 27.9236 251.753 28.6095C250.77 29.2954 249.587 29.6368 248.197 29.6368C246.864 29.6368 245.672 29.3224 244.627 28.6934C243.582 28.0644 242.761 27.1569 242.168 25.9708C241.575 24.7847 241.279 23.386 241.279 21.7746C241.279 20.1812 241.575 18.7915 242.168 17.6084C242.761 16.4223 243.579 15.5148 244.627 14.8858C245.672 14.2569 246.864 13.9424 248.197 13.9424C249.581 13.9484 250.767 14.2898 251.75 14.9757ZM245.789 18.0727C244.948 18.9712 244.525 20.2082 244.525 21.7806C244.525 23.3561 244.948 24.5901 245.789 25.4886C246.631 26.3871 247.757 26.8364 249.165 26.8364C250.054 26.8364 250.851 26.6267 251.555 26.2104C252.259 25.7941 252.813 25.2071 253.223 24.4463C253.63 23.6855 253.834 22.799 253.834 21.7806C253.834 20.7803 253.63 19.8967 253.223 19.1269C252.816 18.3572 252.259 17.7672 251.555 17.3478C250.851 16.9315 250.054 16.7219 249.165 16.7219C247.757 16.7249 246.631 17.1741 245.789 18.0727Z" fill="black"/>
<path d="M23.958 11.7828H26.8992C29.1755 11.7828 31.0235 13.6398 31.0235 15.9341V18.8963C31.0235 19.5612 31.5596 20.1003 32.2185 20.1003H41.5334C42.1923 20.1003 42.7284 19.5612 42.7284 18.8963V11.7828V5.8974C42.7284 2.63871 40.1047 0 36.87 0H31.0235H23.958C23.2991 0 22.7629 0.539122 22.7629 1.20105V10.5818C22.7659 11.2437 23.2991 11.7828 23.958 11.7828Z" fill="#1C84E8"/>
<path d="M18.7704 11.7828H15.8292C13.5529 11.7828 11.7049 13.6398 11.7049 15.9341V18.8963C11.7049 19.5612 11.1688 20.1003 10.5099 20.1003H1.19505C0.536125 20.1003 0 19.5612 0 18.8963V11.7828V5.8974C0 2.63871 2.62371 0 5.85845 0H11.7049H18.7704C19.4294 0 19.9655 0.539122 19.9655 1.20105V10.5818C19.9655 11.2437 19.4294 11.7828 18.7704 11.7828Z" fill="#74CB3B"/>
<path d="M18.7704 31.2306H15.8292C13.5529 31.2306 11.7049 29.3736 11.7049 27.0793V24.1171C11.7049 23.4522 11.1688 22.9131 10.5099 22.9131H1.19505C0.536125 22.9131 0 23.4522 0 24.1171V31.2306V37.116C0 40.3747 2.62371 43.0134 5.85845 43.0134H11.7049H18.7704C19.4294 43.0134 19.9655 42.4743 19.9655 41.8123V32.4346C19.9655 31.7697 19.4294 31.2306 18.7704 31.2306Z" fill="#F26A2D"/>
<path d="M23.958 31.2306H26.8992C29.1755 31.2306 31.0235 29.3736 31.0235 27.0793V24.1171C31.0235 23.4522 31.5596 22.9131 32.2185 22.9131H41.5334C42.1923 22.9131 42.7284 23.4522 42.7284 24.1171V31.2306V37.116C42.7284 40.3747 40.1047 43.0134 36.87 43.0134H31.0235H23.958C23.2991 43.0134 22.7629 42.4743 22.7629 41.8123V32.4346C22.7659 31.7697 23.2991 31.2306 23.958 31.2306Z" fill="#DD2872"/>
</svg>
