<svg width="300" height="103" viewBox="-30 0 500 103" fill="none" xmlns="http://www.w3.org/2000/svg">
<g clip-path="url(#clip0_1031_24222)">
<path d="M346.17 24.84H330.61V101H346.17V24.84Z" fill="white"/>
<path d="M52.07 51.73C48.11 50 42.99 48.27 36.71 46.54C31.98 45.27 28.25 44.08 25.52 42.99C22.79 41.9 20.54 40.42 18.76 38.56C16.99 36.7 16.1 34.31 16.1 31.39C16.1 27.11 17.51 23.84 20.33 21.56C23.15 19.29 26.79 18.15 31.25 18.15C36.16 18.15 40.12 19.38 43.12 21.84C46.12 24.3 47.76 27.25 48.03 30.71H65.23C64.59 22.7 61.34 16.4 55.47 11.8C49.6 7.21003 42.07 4.91003 32.88 4.91003C26.42 4.91003 20.73 6.00003 15.82 8.19003C10.91 10.37 7.08 13.51 4.35 17.61C1.64 21.7 0.27 26.48 0.27 31.94C0.27 37.86 1.63 42.59 4.36 46.13C7.09 49.68 10.39 52.3 14.26 53.98C18.13 55.66 23.15 57.33 29.34 58.96C34.25 60.24 38.1 61.42 40.87 62.51C43.64 63.6 45.96 65.15 47.83 67.15C49.69 69.15 50.63 71.75 50.63 74.93C50.63 79.03 49.13 82.37 46.13 84.96C43.13 87.55 38.94 88.85 33.57 88.85C28.2 88.85 24.36 87.53 21.49 84.89C18.62 82.25 17.01 78.88 16.64 74.79H0C0 80.25 1.45 85.03 4.37 89.12C7.28 93.21 11.28 96.38 16.38 98.61C21.47 100.84 27.21 101.96 33.58 101.96C40.31 101.96 46.16 100.66 51.12 98.07C56.08 95.48 59.86 92.04 62.45 87.76C65.04 83.48 66.34 78.94 66.34 74.11C66.34 68.1 64.95 63.31 62.18 59.71C59.4 56.12 56.04 53.45 52.08 51.72L52.07 51.73Z" fill="white"/>
<path d="M213.47 67.7C213.47 74.44 211.76 79.6001 208.35 83.1901C204.94 86.7901 200.32 88.5801 194.5 88.5801C188.68 88.5801 184.08 86.7801 180.71 83.1901C177.34 79.6001 175.66 74.43 175.66 67.7V25.8H160.24V70.03C160.24 76.85 161.58 82.68 164.27 87.5C166.95 92.3201 170.64 95.96 175.33 98.42C180.02 100.88 185.32 102.1 191.23 102.1C195.69 102.1 199.9 101.21 203.86 99.44C207.82 97.6701 211.02 95.23 213.48 92.14V101.01H229.04V25.8H213.48V67.7H213.47Z" fill="white"/>
<path d="M321.15 63.4C321.15 42 303.74 24.59 282.34 24.59C273.63 24.59 265.58 27.48 259.1 32.34V0H243.54V63.06C243.54 63.17 243.54 63.29 243.54 63.4C243.54 63.51 243.54 63.63 243.54 63.74V101H259.1V94.46C265.58 99.32 273.63 102.21 282.34 102.21C303.74 102.21 321.15 84.8 321.15 63.4ZM282.34 86.63C269.53 86.63 259.11 76.21 259.11 63.4C259.11 50.59 269.53 40.16 282.34 40.16C295.15 40.16 305.57 50.58 305.57 63.4C305.57 76.22 295.15 86.63 282.34 86.63Z" fill="white"/>
<path d="M433.97 63.08V0H418.41V32.34C411.93 27.48 403.88 24.59 395.17 24.59C373.77 24.59 356.36 42 356.36 63.4C356.36 84.8 373.77 102.21 395.17 102.21C403.88 102.21 411.93 99.32 418.41 94.46V101H433.97V63.72C433.97 63.61 433.97 63.5 433.97 63.39C433.97 63.28 433.97 63.17 433.97 63.06V63.08ZM395.17 86.64C382.36 86.64 371.94 76.22 371.94 63.41C371.94 50.6 382.36 40.17 395.17 40.17C407.98 40.17 418.4 50.59 418.4 63.41C418.4 76.23 407.98 86.64 395.17 86.64Z" fill="white"/>
<path d="M113.29 24.3101C91.8905 24.3101 74.4805 41.7201 74.4805 63.1201C74.4805 84.5201 91.8905 101.93 113.29 101.93C134.69 101.93 152.1 84.5201 152.1 63.1201C152.1 41.7201 134.69 24.3101 113.29 24.3101ZM113.29 86.3601C100.48 86.3601 90.0605 75.9401 90.0605 63.1301C90.0605 50.3201 100.48 39.8901 113.29 39.8901C126.1 39.8901 136.52 50.3101 136.52 63.1301C136.52 75.9501 126.1 86.3601 113.29 86.3601Z" fill="white"/>
</g>
<defs>
<clipPath id="clip0_1031_24222">
<rect width="433.98" height="102.21" fill="white"/>
</clipPath>
</defs>
</svg>
