<svg width="30" height="35" viewBox="0 0 272 35" fill="none" xmlns="http://www.w3.org/2000/svg">
<g clip-path="url(#clip0_992_15089)">
<path d="M5.26361 4.43586H8.18683C8.67479 4.43586 8.96847 4.1455 8.96847 3.66305V0.772814C8.96847 0.290364 9.26215 0 9.7501 0H17.1598C17.6478 0 17.9415 0.290364 17.9415 0.772814V3.66305C17.9415 4.1455 18.2351 4.43586 18.7231 4.43586H21.6463C22.1343 4.43586 22.4279 4.72623 22.4279 5.20868V8.09892C22.4279 8.58137 22.7216 8.87173 23.2096 8.87173H26.1328C26.6208 8.87173 26.9144 9.16209 26.9144 9.64454V33.6509C26.9144 34.1334 26.6208 34.4237 26.1328 34.4237H23.2096C22.7216 34.4237 22.4279 34.1334 22.4279 33.6509V24.06C22.4279 23.5775 22.1343 23.2872 21.6463 23.2872H5.26361C4.77565 23.2872 4.48197 23.5775 4.48197 24.06V33.6509C4.48197 34.1334 4.1883 34.4237 3.70034 34.4237H0.781635C0.293678 34.4237 0 34.1334 0 33.6509V9.64008C0 9.15763 0.293678 8.86726 0.781635 8.86726H3.70486C4.19281 8.86726 4.48649 8.5769 4.48649 8.09445V5.20421C4.48649 4.72176 4.78017 4.4314 5.26813 4.4314L5.26361 4.43586ZM5.26361 18.8513H21.6463C22.1343 18.8513 22.4279 18.5609 22.4279 18.0785V9.64454C22.4279 9.16209 22.1343 8.87173 21.6463 8.87173H18.7231C18.2351 8.87173 17.9415 8.58137 17.9415 8.09892V5.20868C17.9415 4.72623 17.6478 4.43586 17.1598 4.43586H9.7501C9.26215 4.43586 8.96847 4.72623 8.96847 5.20868V8.09892C8.96847 8.58137 8.67479 8.87173 8.18683 8.87173H5.26361C4.77565 8.87173 4.48197 9.16209 4.48197 9.64454V18.0785C4.48197 18.5609 4.77565 18.8513 5.26361 18.8513Z" fill="white"/>
<path d="M56.8972 21.8845C56.8972 29.5992 52.5101 34.9955 45.3895 34.9955C40.8082 34.9955 37.6364 32.007 36.7102 29.4518H36.6605V34.4193H32.2734V0H36.6605V14.5584H36.7102C37.6364 11.9541 40.8036 8.9164 45.3895 8.9164C52.5101 8.9164 56.8972 14.1698 56.8972 21.8845ZM44.513 31.2833C49.8263 31.2833 52.5101 27.2808 52.5101 21.8845C52.5101 16.4882 49.6818 12.5795 44.513 12.5795C39.0506 12.5795 36.516 17.0153 36.516 21.8845C36.516 26.7537 39.0506 31.2833 44.513 31.2833Z" fill="white"/>
<path d="M70.8899 12.5839C68.4998 12.5839 66.1098 13.933 66.1098 16.0549C66.1098 17.9847 68.0616 19.0926 70.2529 19.6242L73.5692 20.4416C77.3734 21.3574 81.2229 23.1398 81.2229 27.2853C81.2229 32.5878 75.6159 35 71.2288 35C66.8417 35 61.429 33.0702 60.9907 26.9011H65.3778C65.9652 30.0817 67.9622 31.337 71.3734 31.337C73.8583 31.337 76.8358 30.4704 76.8358 27.5757C76.8358 25.4538 74.7394 24.7301 72.3493 24.1538L68.8387 23.2872C65.0841 22.3714 61.7181 20.1066 61.7181 16.247C61.7181 11.5699 66.5932 8.9209 71.03 8.9209C75.9547 8.9209 80.2921 11.5252 80.7801 17.0198H76.4427C76.149 13.7901 73.4201 12.5839 70.8854 12.5839H70.8899Z" fill="white"/>
<path d="M95.4137 30.8499H97.1667V34.4192H94.9709C90.0959 34.4192 87.9001 31.5736 87.9001 27.7185V13.0618H84.1455V9.49257H87.9001V1.73315H92.1923V9.17093C92.1923 9.34962 92.3369 9.49257 92.5176 9.49257H97.0176V13.0618H92.1923V27.4281C92.1923 29.6438 93.4619 30.8499 95.4092 30.8499H95.4137Z" fill="white"/>
<path d="M106.578 14.5093C107.848 10.8463 110.283 9.39893 114.087 9.39893V13.5444C113.893 13.5444 113.111 13.5936 112.479 13.6874C109.555 14.1207 106.578 15.4206 106.578 22.6529V34.4149H102.191V9.4972H106.578V14.5093Z" fill="white"/>
<path d="M157.809 35C149.961 35 144.887 29.5055 144.887 21.9828C144.887 14.4601 149.956 8.9209 157.809 8.9209C164.242 8.9209 167.708 12.441 168.779 16.9707H164.391C163.465 14.7058 161.757 12.4857 157.664 12.4857C152.545 12.4857 149.278 16.6312 149.278 21.9828C149.278 27.3344 152.545 31.3817 157.664 31.3817C161.319 31.3817 163.416 29.7422 164.541 26.8028H168.977C167.563 32.007 163.908 35 157.813 35H157.809Z" fill="white"/>
<path d="M182.483 30.8499H184.236V34.4192H182.04C177.165 34.4192 174.969 31.5736 174.969 27.7185V13.0618H171.215V9.49257H174.969V1.73315H179.262V9.17093C179.262 9.34962 179.406 9.49257 179.587 9.49257H184.087V13.0618H179.262V27.4281C179.262 29.6438 180.531 30.8499 182.479 30.8499H182.483Z" fill="white"/>
<path d="M142.105 29.9834H138.965C138.535 29.9834 138.183 29.6394 138.183 29.2105V14.2546C138.183 14.0759 138.038 13.9329 137.858 13.9329H134.478C134.049 13.9329 133.696 13.589 133.696 13.1601V10.0555C133.696 9.74723 133.443 9.49707 133.132 9.49707H121.927C121.615 9.49707 121.362 9.74723 121.362 10.0555V13.3701C121.362 13.6783 121.615 13.9285 121.927 13.9285H132.915C133.344 13.9285 133.696 14.2724 133.696 14.7013V18.0427C133.696 18.2214 133.552 18.3643 133.371 18.3643H121.927C121.615 18.3643 121.362 18.6145 121.362 18.9227V22.0274C121.362 22.5098 121.068 22.8002 120.58 22.8002H117.44C117.129 22.8002 116.875 23.0504 116.875 23.3586V29.4205C116.875 29.7287 117.129 29.9789 117.44 29.9789H120.58C121.01 29.9789 121.362 30.3228 121.362 30.7517V33.8564C121.362 34.1646 121.615 34.4147 121.927 34.4147H133.132C133.443 34.4147 133.696 34.1646 133.696 33.8564V30.7517C133.696 30.3273 134.044 29.9789 134.478 29.9789H137.401C137.831 29.9789 138.183 30.3228 138.183 30.7517V33.8564C138.183 34.1646 138.436 34.4147 138.748 34.4147H142.1C142.412 34.4147 142.665 34.1646 142.665 33.8564V30.5417C142.665 30.2335 142.412 29.9834 142.1 29.9834H142.105ZM133.701 29.2105C133.701 29.693 133.407 29.9834 132.919 29.9834H122.144C121.656 29.9834 121.362 29.693 121.362 29.2105V23.5685C121.362 23.0861 121.656 22.7957 122.144 22.7957H132.919C133.407 22.7957 133.701 23.0861 133.701 23.5685V29.2105Z" fill="white"/>
<path d="M196.468 0.129639H197.783V9.93053H196.468V0.129639Z" fill="white"/>
<path d="M199.789 9.92601V2.82774H201.036V4.16341C201.244 3.7167 201.524 3.35486 201.881 3.08236C202.238 2.8054 202.672 2.67139 203.191 2.67139C203.648 2.67139 204.05 2.74286 204.393 2.88134C204.736 3.01982 205.007 3.21638 205.206 3.46207C205.405 3.71223 205.554 3.98919 205.649 4.30189C205.744 4.61459 205.794 4.95409 205.794 5.32933V9.92601H204.538V5.44994C204.538 4.84241 204.411 4.40017 204.154 4.12321C203.896 3.84624 203.521 3.70776 203.024 3.70776C202.459 3.70776 201.985 3.94452 201.605 4.41357C201.226 4.88709 201.036 5.56162 201.036 6.44165V9.92601H199.789Z" fill="white"/>
<path d="M207.572 9.92601V2.82774H208.819V4.16341C209.027 3.7167 209.307 3.35486 209.664 3.08236C210.021 2.8054 210.455 2.67139 210.974 2.67139C211.431 2.67139 211.833 2.74286 212.176 2.88134C212.52 3.01982 212.791 3.21638 212.99 3.46207C213.188 3.71223 213.337 3.98919 213.432 4.30189C213.527 4.61459 213.577 4.95409 213.577 5.32933V9.92601H212.321V5.44994C212.321 4.84241 212.194 4.40017 211.937 4.12321C211.679 3.84624 211.304 3.70776 210.807 3.70776C210.242 3.70776 209.768 3.94452 209.389 4.41357C209.009 4.88709 208.819 5.56162 208.819 6.44165V9.92601H207.572Z" fill="white"/>
<path d="M220.4 9.60445C219.849 9.93502 219.216 10.0958 218.507 10.0958C217.798 10.0958 217.165 9.93055 216.614 9.60445C216.063 9.27388 215.643 8.83164 215.349 8.26878C215.055 7.71039 214.911 7.08052 214.911 6.38812C214.911 5.69571 215.055 5.06584 215.349 4.50298C215.643 3.94013 216.063 3.49341 216.614 3.16284C217.165 2.83228 217.798 2.66699 218.507 2.66699C219.216 2.66699 219.849 2.83228 220.4 3.16284C220.951 3.49341 221.372 3.94013 221.665 4.50298C221.959 5.06584 222.103 5.69571 222.103 6.38812C222.103 7.08052 221.959 7.70592 221.665 8.26878C221.372 8.83164 220.951 9.27388 220.4 9.60445ZM216.162 6.39258C216.162 7.13413 216.379 7.76399 216.822 8.27771C217.26 8.7959 217.825 9.05053 218.512 9.05053C219.198 9.05053 219.763 8.79143 220.201 8.27771C220.64 7.75953 220.861 7.13413 220.861 6.39258C220.861 5.65104 220.64 5.00777 220.201 4.48958C219.763 3.9714 219.198 3.7123 218.512 3.7123C217.825 3.7123 217.26 3.9714 216.822 4.48958C216.384 5.00777 216.162 5.6421 216.162 6.39258Z" fill="white"/>
<path d="M223.916 2.82764C224.142 3.47984 224.48 4.45814 224.928 5.75808C225.38 7.05801 225.714 8.03185 225.94 8.67958H225.953L227.955 2.82764H229.319C229.017 3.61385 228.565 4.79764 227.968 6.37901C227.368 7.96037 226.92 9.1397 226.622 9.92591H225.253C224.955 9.1397 224.503 7.95591 223.902 6.37901C223.301 4.79764 222.849 3.61832 222.551 2.82764H223.916Z" fill="white"/>
<path d="M230.038 4.9764C230.079 4.70391 230.165 4.43588 230.3 4.17679C230.431 3.91769 230.612 3.66753 230.838 3.43524C231.064 3.20295 231.357 3.01533 231.723 2.87238C232.089 2.72943 232.491 2.65796 232.939 2.65796C233.44 2.65796 233.878 2.7205 234.249 2.85005C234.619 2.97959 234.904 3.13148 235.098 3.31463C235.293 3.49778 235.451 3.7256 235.568 3.99363C235.686 4.26613 235.753 4.50735 235.785 4.72178C235.812 4.9362 235.83 5.17742 235.83 5.44098V8.49204C235.83 8.99682 235.866 9.47927 235.939 9.93492H234.61C234.592 9.7071 234.583 9.36313 234.583 8.90301V8.62605H234.57C234.52 8.78687 234.443 8.94322 234.344 9.0951C234.244 9.24698 234.104 9.40333 233.928 9.56415C233.752 9.72497 233.513 9.85451 233.214 9.95279C232.916 10.0511 232.577 10.1002 232.202 10.1002C231.787 10.1002 231.416 10.0377 231.086 9.91705C230.756 9.79197 230.494 9.63116 230.296 9.42567C230.097 9.22018 229.943 8.99682 229.839 8.7556C229.735 8.50991 229.681 8.25975 229.681 7.99618C229.681 7.75496 229.717 7.5316 229.799 7.33058C229.875 7.12956 229.975 6.95981 230.092 6.82133C230.21 6.68285 230.363 6.55777 230.549 6.44609C230.734 6.33441 230.915 6.24507 231.086 6.18253C231.258 6.11552 231.461 6.05745 231.692 5.99938C231.927 5.94577 232.121 5.90557 232.284 5.88323C232.446 5.86089 232.636 5.83409 232.853 5.80282C233.07 5.77155 233.223 5.74922 233.314 5.72688C233.784 5.642 234.109 5.52586 234.294 5.37844C234.479 5.23103 234.57 5.00767 234.57 4.71284C234.57 4.41801 234.43 4.16338 234.145 3.97576C233.86 3.78814 233.472 3.69433 232.97 3.69433C232.537 3.69433 232.166 3.81048 231.863 4.04277C231.556 4.27506 231.362 4.58776 231.276 4.9764H230.029H230.038ZM230.928 7.99172C230.928 8.32229 231.068 8.58585 231.344 8.79134C231.619 8.99682 231.981 9.09063 232.424 9.09063C232.708 9.09063 232.979 9.04596 233.232 8.95215C233.485 8.85834 233.716 8.71539 233.928 8.52777C234.141 8.34015 234.303 8.08106 234.425 7.75496C234.547 7.43333 234.61 7.05809 234.61 6.63371L234.597 5.64647C234.543 5.82516 234.466 5.97704 234.362 6.09765C234.258 6.22273 234.064 6.34781 233.77 6.47736C233.476 6.60691 233.088 6.71412 232.595 6.79899C232.035 6.89727 231.615 7.03575 231.339 7.21444C231.064 7.39312 230.924 7.65222 230.924 7.99172H230.928Z" fill="white"/>
<path d="M244.058 7.75499C243.854 8.50993 243.488 9.09066 242.955 9.4927C242.422 9.89474 241.731 10.0958 240.877 10.0958C239.775 10.0958 238.884 9.74733 238.211 9.05492C237.538 8.35805 237.199 7.47356 237.199 6.39251C237.199 5.31146 237.534 4.41357 238.211 3.7167C238.884 3.01982 239.775 2.67139 240.877 2.67139C241.749 2.67139 242.449 2.88134 242.973 3.30125C243.497 3.72116 243.841 4.27509 244.004 4.96303H242.757C242.684 4.78434 242.598 4.62799 242.503 4.48504C242.409 4.34656 242.287 4.21255 242.138 4.083C241.988 3.95345 241.803 3.85518 241.586 3.7837C241.365 3.71223 241.116 3.68096 240.836 3.68096C240.122 3.68096 239.544 3.94005 239.106 4.45377C238.668 4.96749 238.446 5.61523 238.446 6.39251C238.446 7.16979 238.663 7.79966 239.106 8.30444C239.544 8.8137 240.122 9.06386 240.836 9.06386C241.812 9.06386 242.467 8.62608 242.797 7.75499H244.058Z" fill="white"/>
<path d="M245.544 9.92606V2.82779H246.791V9.92606H245.544ZM246.908 1.50105H245.571V0.129639H246.908V1.50552V1.50105Z" fill="white"/>
<path d="M253.79 9.60436C253.239 9.93493 252.606 10.0957 251.897 10.0957C251.187 10.0957 250.555 9.93046 250.004 9.60436C249.452 9.27379 249.032 8.83154 248.739 8.26869C248.445 7.71029 248.3 7.08043 248.3 6.38802C248.3 5.69562 248.445 5.06575 248.739 4.50289C249.032 3.94003 249.452 3.49332 250.004 3.16275C250.555 2.83218 251.187 2.6669 251.897 2.6669C252.606 2.6669 253.239 2.83218 253.79 3.16275C254.341 3.49332 254.761 3.94003 255.055 4.50289C255.349 5.06575 255.493 5.69562 255.493 6.38802C255.493 7.08043 255.349 7.70583 255.055 8.26869C254.761 8.83154 254.341 9.27379 253.79 9.60436ZM249.552 6.39249C249.552 7.13403 249.769 7.7639 250.211 8.27762C250.65 8.79581 251.214 9.05044 251.901 9.05044C252.588 9.05044 253.153 8.79134 253.591 8.27762C254.029 7.75943 254.251 7.13403 254.251 6.39249C254.251 5.65094 254.029 5.00768 253.591 4.48949C253.153 3.9713 252.588 3.71221 251.901 3.71221C251.214 3.71221 250.65 3.9713 250.211 4.48949C249.773 5.00768 249.552 5.64201 249.552 6.39249ZM251.192 1.92982L252.425 0.134033H254.007L252.109 1.92982H251.192Z" fill="white"/>
<path d="M256.888 9.92601V2.82774H258.135V4.16341C258.343 3.7167 258.623 3.35486 258.98 3.08236C259.337 2.8054 259.771 2.67139 260.29 2.67139C260.747 2.67139 261.149 2.74286 261.492 2.88134C261.836 3.01982 262.107 3.21638 262.305 3.46207C262.504 3.71223 262.653 3.98919 262.748 4.30189C262.843 4.61459 262.893 4.95409 262.893 5.32933V9.92601H261.637V5.44994C261.637 4.84241 261.51 4.40017 261.253 4.12321C260.995 3.84624 260.62 3.70776 260.123 3.70776C259.558 3.70776 259.084 3.94452 258.704 4.41357C258.325 4.88709 258.135 5.56162 258.135 6.44165V9.92601H256.888Z" fill="white"/>
<path d="M195.632 14.3575V13.2585H203.028V14.3575H199.992V23.0594H198.668V14.3575H195.632Z" fill="white"/>
<path d="M209.227 20.9464C209.032 21.688 208.653 22.2553 208.088 22.6439C207.523 23.0326 206.832 23.2291 206.019 23.2291C204.962 23.2291 204.108 22.8807 203.462 22.1883C202.816 21.4959 202.49 20.5891 202.49 19.4723C202.49 18.3555 202.82 17.5246 203.48 16.8367C204.139 16.1487 204.975 15.8003 205.987 15.8003C206.475 15.8003 206.913 15.8762 207.298 16.0236C207.686 16.1755 208.002 16.3721 208.246 16.6178C208.495 16.8635 208.698 17.1583 208.865 17.4978C209.032 17.8373 209.145 18.1813 209.218 18.5297C209.285 18.8781 209.326 19.2445 209.331 19.6286V19.852H203.697C203.742 20.5801 203.972 21.1519 204.392 21.5718C204.813 21.9917 205.341 22.1972 205.987 22.1972C206.493 22.1972 206.927 22.0945 207.284 21.889C207.641 21.6835 207.88 21.3708 208.002 20.9509H209.222L209.227 20.9464ZM203.715 18.8558H208.075C208.02 18.2215 207.817 17.7212 207.46 17.3593C207.103 16.993 206.615 16.8143 205.992 16.8143C205.368 16.8143 204.844 17.002 204.442 17.3727C204.04 17.7435 203.8 18.2393 203.715 18.8603V18.8558Z" fill="white"/>
<path d="M217.202 20.8883C216.998 21.6432 216.632 22.224 216.099 22.626C215.566 23.028 214.875 23.2291 214.021 23.2291C212.919 23.2291 212.029 22.8806 211.355 22.1882C210.682 21.4913 210.343 20.6069 210.343 19.5258C210.343 18.4448 210.678 17.5469 211.355 16.85C212.029 16.1531 212.919 15.8047 214.021 15.8047C214.893 15.8047 215.593 16.0146 216.117 16.4346C216.642 16.8545 216.985 17.4084 217.148 18.0963H215.901C215.828 17.9176 215.742 17.7613 215.648 17.6183C215.553 17.4799 215.431 17.3458 215.282 17.2163C215.132 17.0868 214.947 16.9885 214.73 16.917C214.509 16.8455 214.26 16.8143 213.98 16.8143C213.266 16.8143 212.688 17.0734 212.25 17.5871C211.812 18.1008 211.59 18.7485 211.59 19.5258C211.59 20.3031 211.807 20.933 212.25 21.4377C212.688 21.947 213.266 22.1972 213.98 22.1972C214.956 22.1972 215.611 21.7594 215.941 20.8883H217.202Z" fill="white"/>
<path d="M218.688 23.0593V15.961H219.935V17.2967C220.143 16.85 220.423 16.4882 220.78 16.2157C221.137 15.9387 221.571 15.8047 222.09 15.8047C222.546 15.8047 222.949 15.8762 223.292 16.0146C223.635 16.1531 223.906 16.3497 224.105 16.5954C224.304 16.8455 224.453 17.1225 224.548 17.4352C224.643 17.7479 224.693 18.0874 224.693 18.4626V23.0593H223.437V18.5832C223.437 17.9757 223.31 17.5335 223.052 17.2565C222.795 16.9795 222.42 16.8411 221.923 16.8411C221.358 16.8411 220.884 17.0778 220.504 17.5469C220.125 18.0204 219.935 18.6949 219.935 19.5749V23.0593H218.688Z" fill="white"/>
<path d="M231.514 22.7334C230.963 23.0639 230.331 23.2247 229.621 23.2247C228.912 23.2247 228.279 23.0595 227.728 22.7334C227.177 22.4028 226.757 21.9605 226.463 21.3977C226.169 20.8393 226.025 20.2094 226.025 19.517C226.025 18.8246 226.169 18.1948 226.463 17.6319C226.757 17.069 227.177 16.6223 227.728 16.2918C228.279 15.9612 228.912 15.7959 229.621 15.7959C230.331 15.7959 230.963 15.9612 231.514 16.2918C232.066 16.6223 232.486 17.069 232.78 17.6319C233.073 18.1948 233.218 18.8246 233.218 19.517C233.218 20.2094 233.073 20.8348 232.78 21.3977C232.486 21.9605 232.066 22.4028 231.514 22.7334ZM227.276 19.5215C227.276 20.263 227.493 20.8929 227.936 21.4066C228.374 21.9248 228.939 22.1794 229.626 22.1794C230.313 22.1794 230.877 21.9203 231.316 21.4066C231.754 20.8884 231.975 20.263 231.975 19.5215C231.975 18.7799 231.754 18.1367 231.316 17.6185C230.877 17.1003 230.313 16.8412 229.626 16.8412C228.939 16.8412 228.374 17.1003 227.936 17.6185C227.498 18.1367 227.276 18.771 227.276 19.5215Z" fill="white"/>
<path d="M234.614 13.2585H235.861V23.0594H234.614V13.2585Z" fill="white"/>
<path d="M242.751 22.7333C242.2 23.0638 241.567 23.2247 240.858 23.2247C240.148 23.2247 239.516 23.0594 238.965 22.7333C238.413 22.4027 237.993 21.9605 237.699 21.3976C237.406 20.8392 237.261 20.2093 237.261 19.5169C237.261 18.8245 237.406 18.1947 237.699 17.6318C237.993 17.0689 238.413 16.6222 238.965 16.2917C239.516 15.9611 240.148 15.7958 240.858 15.7958C241.567 15.7958 242.2 15.9611 242.751 16.2917C243.302 16.6222 243.722 17.0689 244.016 17.6318C244.31 18.1947 244.454 18.8245 244.454 19.5169C244.454 20.2093 244.31 20.8347 244.016 21.3976C243.722 21.9605 243.302 22.4027 242.751 22.7333ZM238.513 19.5214C238.513 20.2629 238.73 20.8928 239.172 21.4065C239.611 21.9247 240.175 22.1793 240.862 22.1793C241.549 22.1793 242.114 21.9202 242.552 21.4065C242.99 20.8883 243.212 20.2629 243.212 19.5214C243.212 18.7799 242.99 18.1366 242.552 17.6184C242.114 17.1002 241.549 16.8411 240.862 16.8411C240.175 16.8411 239.611 17.1002 239.172 17.6184C238.734 18.1366 238.513 18.7709 238.513 19.5214ZM240.153 15.0587L241.386 13.2629H242.968L241.07 15.0587H240.153Z" fill="white"/>
<path d="M251.164 15.9613H252.42V22.5101C252.42 23.1846 252.261 23.7743 251.95 24.2791C251.638 24.7838 251.231 25.1591 250.734 25.4092C250.233 25.6594 249.686 25.78 249.085 25.78C248.177 25.78 247.418 25.5656 246.804 25.1323C246.189 24.7034 245.846 24.1093 245.769 23.3588H247.016C247.138 24.2746 247.829 24.7347 249.085 24.7347C249.379 24.7347 249.65 24.6945 249.894 24.6096C250.138 24.5248 250.359 24.3997 250.554 24.2255C250.748 24.0557 250.902 23.8189 251.01 23.5286C251.118 23.2382 251.173 22.8942 251.173 22.5056V21.6524H251.159C250.798 22.6977 249.993 23.2203 248.746 23.2203C248.078 23.2203 247.49 23.0551 246.98 22.7334C246.469 22.4073 246.085 21.9606 245.819 21.3978C245.552 20.8349 245.417 20.1961 245.417 19.4858C245.417 18.4092 245.719 17.5248 246.325 16.8323C246.93 16.1399 247.739 15.7915 248.746 15.7915C249.388 15.7915 249.912 15.9389 250.319 16.2248C250.725 16.5152 251.005 16.8636 251.159 17.2701H251.173V15.9479L251.164 15.9613ZM246.654 19.4948C246.654 19.8521 246.7 20.1872 246.795 20.5043C246.885 20.8215 247.025 21.1029 247.206 21.3576C247.386 21.6122 247.626 21.8087 247.92 21.9517C248.218 22.0991 248.552 22.1706 248.932 22.1706C249.27 22.1706 249.573 22.1125 249.844 22.0008C250.111 21.8891 250.332 21.7417 250.499 21.5586C250.667 21.3754 250.807 21.1655 250.915 20.9242C251.023 20.683 251.1 20.4463 251.145 20.2095C251.186 19.9727 251.209 19.736 251.209 19.4948C251.209 19.2044 251.159 18.9096 251.064 18.6058C250.965 18.302 250.829 18.0206 250.648 17.7526C250.468 17.4845 250.228 17.2657 249.93 17.0959C249.627 16.9262 249.298 16.8413 248.932 16.8413C248.444 16.8413 248.023 16.9664 247.671 17.221C247.319 17.4756 247.061 17.7972 246.898 18.1904C246.736 18.5835 246.654 19.0212 246.654 19.4992V19.4948Z" fill="white"/>
<path d="M254.254 23.0594V15.9612H255.501V23.0594H254.254ZM255.618 14.6344H254.281V13.2585H255.618V14.6344Z" fill="white"/>
<path d="M263.869 20.8885C263.665 21.6435 263.299 22.2242 262.766 22.6262C262.233 23.0283 261.542 23.2293 260.688 23.2293C259.586 23.2293 258.696 22.8809 258.022 22.1885C257.349 21.4916 257.01 20.6071 257.01 19.5261C257.01 18.445 257.345 17.5471 258.022 16.8502C258.696 16.1534 259.586 15.8049 260.688 15.8049C261.56 15.8049 262.26 16.0149 262.784 16.4348C263.309 16.8547 263.652 17.4086 263.815 18.0966H262.568C262.495 17.9179 262.409 17.7615 262.315 17.6186C262.22 17.4801 262.098 17.3461 261.949 17.2165C261.799 17.087 261.614 16.9887 261.397 16.9172C261.176 16.8458 260.927 16.8145 260.647 16.8145C259.933 16.8145 259.355 17.0736 258.917 17.5873C258.479 18.101 258.257 18.7488 258.257 19.5261C258.257 20.3033 258.474 20.9332 258.917 21.438C259.355 21.9472 259.933 22.1974 260.647 22.1974C261.623 22.1974 262.278 21.7596 262.608 20.8885H263.869Z" fill="white"/>
<path d="M265.342 18.1053C265.382 17.8328 265.468 17.5648 265.604 17.3057C265.735 17.0466 265.916 16.7964 266.142 16.5641C266.367 16.3319 266.661 16.1442 267.027 16.0013C267.393 15.8583 267.795 15.7869 268.242 15.7869C268.744 15.7869 269.182 15.8494 269.553 15.979C269.923 16.1085 270.208 16.2604 270.402 16.4435C270.596 16.6267 270.755 16.8545 270.872 17.1225C270.989 17.395 271.057 17.6363 271.089 17.8507C271.116 18.0651 271.134 18.3063 271.134 18.5699V21.6209C271.134 22.1257 271.17 22.6082 271.242 23.0638H269.914C269.896 22.836 269.887 22.492 269.887 22.0319V21.755H269.873C269.824 21.9158 269.747 22.0721 269.648 22.224C269.548 22.3759 269.408 22.5322 269.232 22.6931C269.056 22.8539 268.816 22.9834 268.518 23.0817C268.22 23.18 267.881 23.2291 267.506 23.2291C267.09 23.2291 266.72 23.1666 266.39 23.046C266.06 22.9209 265.798 22.7601 265.599 22.5546C265.401 22.3491 265.247 22.1257 265.143 21.8845C265.039 21.6388 264.985 21.3887 264.985 21.1251C264.985 20.8839 265.021 20.6605 265.102 20.4595C265.179 20.2585 265.279 20.0887 265.396 19.9502C265.513 19.8118 265.667 19.6867 265.852 19.575C266.038 19.4633 266.218 19.374 266.39 19.3114C266.562 19.2444 266.765 19.1864 266.995 19.1283C267.23 19.0747 267.425 19.0345 267.587 19.0121C267.75 18.9898 267.94 18.963 268.157 18.9317C268.373 18.9005 268.527 18.8781 268.617 18.8558C269.087 18.7709 269.413 18.6548 269.598 18.5074C269.783 18.3599 269.873 18.1366 269.873 17.8417C269.873 17.5469 269.733 17.2923 269.449 17.1047C269.164 16.9171 268.776 16.8232 268.274 16.8232C267.84 16.8232 267.47 16.9394 267.167 17.1717C266.86 17.404 266.666 17.7167 266.58 18.1053H265.333H265.342ZM266.232 21.1206C266.232 21.4512 266.372 21.7148 266.648 21.9202C266.923 22.1257 267.285 22.2195 267.727 22.2195C268.012 22.2195 268.283 22.1749 268.536 22.0811C268.789 21.9872 269.02 21.8443 269.232 21.6567C269.444 21.4691 269.607 21.21 269.729 20.8839C269.851 20.5622 269.914 20.187 269.914 19.7626L269.901 18.7754C269.846 18.9541 269.77 19.1059 269.666 19.2266C269.562 19.3516 269.367 19.4767 269.074 19.6063C268.78 19.7358 268.392 19.843 267.899 19.9279C267.339 20.0262 266.919 20.1647 266.643 20.3433C266.367 20.522 266.227 20.7811 266.227 21.1206H266.232Z" fill="white"/>
</g>
<defs>
<clipPath id="clip0_992_15089">
<rect width="271.047" height="35" fill="white"/>
</clipPath>
</defs>
</svg>
