<?xml version="1.0" standalone="no"?>
<!DOCTYPE svg PUBLIC "-//W3C//DTD SVG 20010904//EN"
 "http://www.w3.org/TR/2001/REC-SVG-20010904/DTD/svg10.dtd">
<svg version="1.0" xmlns="http://www.w3.org/2000/svg"
 width="200" height="328" viewBox="0 0 614 328"
 preserveAspectRatio="xMidYMid meet">

<g transform="translate(0.000000,328.000000) scale(0.100000,-0.100000)"
fill="#FFFFFF" stroke="none">
<path d="M1065 2228 c-40 -22 -47 -64 -17 -91 15 -14 40 -17 126 -17 130 0
146 7 146 61 0 33 -4 41 -26 49 -35 14 -204 12 -229 -2z"/>
<path d="M438 2209 c-11 -6 -18 -22 -18 -39 l0 -30 140 0 140 0 0 30 c0 19 -7
33 -19 40 -25 13 -220 13 -243 -1z"/>
<path d="M2429 2111 c-32 -32 -39 -45 -39 -79 0 -73 69 -104 138 -62 38 24 65
79 56 115 -8 34 -50 65 -87 65 -21 0 -40 -11 -68 -39z"/>
<path d="M3625 2123 c-16 -3 -33 -8 -37 -11 -8 -8 -188 -1001 -188 -1035 0
-10 16 -13 57 -13 63 1 70 9 72 84 1 42 18 41 62 -4 102 -107 271 -123 436
-42 133 65 212 194 239 389 19 147 -76 310 -207 352 -110 36 -264 12 -354 -54
-30 -23 -41 -26 -43 -15 -2 7 11 87 27 176 17 90 31 167 31 171 0 9 -40 10
-95 2z m338 -394 c60 -16 122 -83 142 -153 20 -70 16 -125 -16 -210 -44 -118
-149 -196 -266 -196 -101 0 -163 34 -206 115 -30 55 -30 199 0 266 63 141 209
216 346 178z"/>
<path d="M5437 2113 c-21 -2 -40 -10 -42 -16 -4 -11 -86 -467 -114 -632 -16
-96 -61 -347 -67 -378 l-6 -28 63 3 64 3 47 235 c26 129 70 357 98 505 28 149
53 280 55 293 6 24 -1 25 -98 15z"/>
<path d="M5840 2111 c-35 -6 -35 -7 -51 -86 -9 -44 -29 -150 -44 -235 -15 -85
-49 -278 -76 -427 -27 -150 -49 -280 -49 -288 0 -24 117 -21 124 3 20 67 195
985 196 1025 0 18 -29 21 -100 8z"/>
<path d="M1780 2100 c-154 -33 -260 -154 -260 -298 0 -118 47 -171 219 -248
202 -90 236 -121 229 -208 -5 -65 -36 -108 -97 -138 -114 -55 -281 -21 -370
76 -14 14 -30 26 -36 26 -17 0 -85 -74 -85 -92 0 -20 68 -77 127 -108 109 -56
247 -65 379 -25 107 33 159 73 201 154 29 55 33 72 33 140 0 68 -3 82 -30 124
-35 56 -97 97 -235 158 -156 68 -204 126 -176 212 46 138 269 161 394 39 l37
-36 45 44 c25 24 45 50 45 56 0 21 -85 84 -142 106 -61 23 -206 33 -278 18z"/>
<path d="M831 2020 l-245 -5 -13 -32 c-12 -30 -11 -35 7 -53 19 -19 33 -20
281 -20 160 0 268 4 280 10 22 12 27 72 7 87 -21 17 -62 18 -317 13z"/>
<path d="M361 1986 c-32 -39 16 -75 83 -62 35 7 37 9 34 39 -3 31 -5 32 -54
35 -36 2 -54 -1 -63 -12z"/>
<path d="M2677 1863 c-3 -5 27 -64 65 -133 38 -69 85 -155 105 -192 l36 -66
-182 -197 c-101 -108 -181 -199 -178 -201 3 -3 33 -7 68 -8 70 -3 40 -26 243
183 55 56 105 100 111 97 6 -2 18 -17 26 -33 39 -77 131 -243 138 -247 4 -3
37 -2 74 2 l67 7 -106 194 -106 194 39 41 c265 281 325 348 319 353 -4 4 -35
9 -70 10 -75 4 -62 14 -221 -164 -65 -73 -121 -130 -126 -128 -4 3 -38 63 -75
133 -37 70 -74 135 -82 145 -11 13 -31 17 -78 17 -35 0 -65 -3 -67 -7z"/>
<path d="M4697 1850 c-193 -49 -337 -245 -337 -461 0 -128 43 -216 135 -275
144 -92 352 -82 513 23 28 19 54 39 57 43 6 10 -52 80 -67 80 -5 0 -26 -13
-46 -30 -73 -58 -203 -85 -293 -60 -91 25 -147 97 -156 200 l-6 60 321 0 321
0 11 57 c29 138 -49 288 -179 346 -52 24 -208 33 -274 17z m200 -115 c75 -32
113 -92 113 -180 l0 -55 -245 0 c-195 0 -247 3 -251 13 -7 20 30 99 66 140 35
40 85 74 128 87 46 14 150 11 189 -5z"/>
<path d="M2376 1813 c-3 -10 -28 -137 -55 -283 -28 -146 -59 -309 -69 -362
-10 -54 -16 -100 -14 -103 11 -10 121 -5 128 7 11 17 154 741 148 750 -3 4
-34 8 -69 8 -52 0 -65 -3 -69 -17z"/>
<path d="M977 1792 c-23 -25 -21 -55 3 -77 17 -15 38 -18 129 -18 124 0 141 7
141 59 0 47 -20 54 -148 54 -93 0 -111 -3 -125 -18z"/>
<path d="M593 1783 c-16 -6 -17 -45 -1 -61 28 -28 128 -6 128 28 0 22 -34 40
-73 39 -23 0 -48 -3 -54 -6z"/>
<path d="M576 1578 c-21 -30 -20 -50 4 -76 20 -22 26 -22 273 -22 281 0 300 4
305 57 6 60 -9 63 -305 63 -259 0 -262 0 -277 -22z"/>
<path d="M372 1573 c-24 -10 -33 -40 -16 -57 15 -16 78 -22 108 -10 19 7 21
45 4 62 -12 12 -71 15 -96 5z"/>
<path d="M230 1383 c-22 -8 -40 -34 -40 -59 0 -41 35 -54 146 -54 87 0 105 3
128 21 32 26 33 43 1 74 -22 23 -31 25 -122 24 -54 0 -105 -3 -113 -6z"/>
<path d="M360 1172 c-57 -5 -81 -60 -42 -95 16 -15 51 -17 285 -17 263 0 266
0 281 22 21 29 20 51 -1 71 -15 13 -56 16 -253 19 -129 2 -251 2 -270 0z"/>
</g>
</svg>
