<?xml version="1.0" standalone="no"?>
<!DOCTYPE svg PUBLIC "-//W3C//DTD SVG 20010904//EN"
 "http://www.w3.org/TR/2001/REC-SVG-20010904/DTD/svg10.dtd">
<svg version="1.0" xmlns="http://www.w3.org/2000/svg"
 width="200" height="1566.000000pt" viewBox="0 0 3280.000000 1566.000000"
 preserveAspectRatio="xMidYMid meet">

<g transform="translate(0.000000,1566.000000) scale(0.100000,-0.100000)"
fill="#FFFFFF" stroke="none">
<path d="M5610 15654 c-653 -36 -1208 -179 -1785 -459 -1273 -620 -2351 -1840
-3035 -3435 -395 -919 -659 -1997 -744 -3035 -54 -649 -45 -1372 25 -2029 95
-900 313 -1791 639 -2606 511 -1277 1275 -2334 2225 -3075 129 -101 437 -308
580 -390 1134 -653 2401 -798 3595 -413 1738 560 3188 2186 3925 4403 278 835
445 1736 495 2670 13 245 13 902 0 1131 -68 1188 -323 2303 -767 3349 -97 229
-334 701 -459 915 -120 206 -349 551 -487 735 -977 1301 -2250 2082 -3617
2219 -150 15 -476 26 -590 20z m520 -205 c899 -72 1789 -461 2580 -1127 160
-135 544 -519 686 -686 669 -787 1198 -1782 1531 -2876 205 -678 334 -1361
399 -2120 22 -253 30 -1038 15 -1337 -60 -1144 -288 -2200 -685 -3177 -101
-248 -158 -372 -297 -646 -891 -1763 -2295 -2939 -3849 -3224 -272 -50 -403
-61 -735 -60 -235 0 -345 4 -455 18 -807 99 -1526 396 -2225 921 -449 337
-907 808 -1264 1300 -901 1241 -1452 2802 -1595 4520 -53 628 -45 1362 20
1980 245 2336 1304 4424 2829 5578 937 709 1959 1023 3045 936z"/>
<path d="M6065 15066 c-28 -20 -12 -40 44 -55 28 -7 51 -18 51 -24 0 -7 -27
-176 -58 -377 l-58 -365 -59 -10 c-52 -9 -90 -34 -74 -49 3 -3 52 -12 110 -21
57 -8 149 -24 204 -34 155 -30 187 -33 261 -21 149 23 258 103 319 233 35 74
65 197 65 265 0 168 -86 306 -235 377 -85 40 -162 59 -323 79 -152 20 -222 20
-247 2z m375 -103 c132 -43 209 -106 259 -213 23 -49 26 -67 25 -160 -1 -169
-53 -286 -157 -355 -70 -46 -139 -60 -231 -46 -113 17 -161 34 -159 57 2 30
114 728 118 741 5 16 44 9 145 -24z"/>
<path d="M4820 14939 c-123 -22 -418 -135 -449 -172 -17 -22 -7 -50 16 -43 10
2 36 7 58 11 l41 6 114 -353 c62 -194 115 -358 117 -365 3 -6 -16 -23 -41 -38
-43 -25 -64 -55 -51 -74 3 -6 43 3 93 20 48 16 147 48 221 70 167 50 219 76
293 147 64 61 99 126 118 217 33 162 -52 405 -177 500 -88 67 -227 97 -353 74z
m142 -109 c60 -17 130 -72 175 -138 61 -91 85 -161 91 -269 4 -81 2 -97 -20
-145 -51 -110 -123 -163 -273 -198 -48 -12 -89 -19 -92 -17 -5 5 -231 702
-235 726 -5 28 157 63 257 55 33 -2 77 -9 97 -14z"/>
<path d="M7213 14789 c-21 -21 -15 -34 27 -58 22 -12 40 -26 40 -31 0 -9 -324
-678 -333 -686 -2 -3 -24 0 -48 5 -45 10 -79 1 -79 -23 0 -11 568 -296 590
-296 4 0 39 40 78 89 74 94 77 111 19 111 -20 0 -43 -14 -81 -50 l-54 -51
-148 82 c-82 45 -150 83 -152 84 -2 2 31 71 72 154 l76 151 115 -57 114 -57
-19 -34 c-29 -48 -26 -62 13 -62 43 0 54 13 111 128 l46 92 -26 10 c-31 12
-68 -7 -79 -39 -5 -18 -13 -16 -117 32 -60 28 -112 57 -115 63 -2 6 29 77 69
157 l73 145 130 -70 c72 -38 133 -73 137 -76 4 -4 -2 -36 -13 -71 -15 -51 -17
-66 -7 -73 16 -10 39 -10 55 0 11 7 87 181 81 187 -14 13 -510 246 -533 250
-18 4 -35 1 -42 -6z"/>
<path d="M3655 14428 c-42 -23 -65 -52 -65 -81 0 -23 179 -807 195 -855 2 -6
-9 -27 -25 -46 -29 -32 -39 -69 -22 -80 15 -9 267 163 276 189 6 14 7 27 4 30
-3 4 -34 -6 -68 -20 -34 -14 -64 -24 -67 -22 -6 7 -73 249 -73 267 0 8 58 52
130 98 l129 84 98 -78 c142 -111 133 -96 85 -148 -39 -42 -51 -73 -36 -89 4
-3 38 15 78 42 39 26 106 69 149 95 78 49 103 76 93 102 -4 12 -14 11 -56 -6
l-52 -20 -369 272 c-202 150 -372 274 -376 275 -5 1 -17 -3 -28 -9z m224 -290
l123 -97 -108 -71 c-59 -38 -109 -69 -110 -67 -3 3 -104 375 -104 383 0 7 32
-17 199 -148z"/>
<path d="M8414 14029 c-3 -6 11 -28 31 -49 l38 -39 -266 -284 -266 -285 -47
24 c-35 18 -51 21 -65 13 -11 -5 -19 -13 -19 -17 0 -4 75 -78 168 -163 92 -86
201 -188 243 -227 l76 -71 96 68 c82 58 95 70 84 83 -22 29 -51 29 -116 -2
-34 -17 -67 -30 -73 -30 -10 0 -230 224 -236 241 -3 7 505 559 513 559 1 0 22
-16 46 -35 47 -37 79 -44 98 -21 9 11 -14 37 -114 130 -101 94 -130 116 -154
116 -17 0 -33 -5 -37 -11z"/>
<path d="M3017 13820 c-110 -28 -229 -112 -379 -268 -91 -94 -128 -145 -128
-174 0 -30 19 -30 64 3 24 17 48 30 53 28 13 -5 507 -537 511 -550 2 -5 -8
-28 -22 -49 -27 -41 -33 -74 -16 -85 10 -6 262 215 353 310 27 28 64 83 84
123 69 138 55 292 -38 431 -54 80 -145 163 -223 201 -51 26 -79 32 -142 36
-44 2 -96 -1 -117 -6z m194 -158 c89 -43 187 -141 231 -229 28 -58 33 -77 32
-143 0 -58 -6 -86 -24 -125 -27 -55 -100 -134 -170 -182 l-46 -31 -140 151
c-77 84 -196 212 -264 285 l-123 133 24 25 c36 38 147 109 209 133 84 32 185
26 271 -17z"/>
<path d="M5600 13739 c-531 -46 -1081 -282 -1570 -672 -1161 -926 -1941 -2657
-2090 -4642 -29 -384 -22 -964 16 -1402 130 -1508 627 -2818 1435 -3788 113
-136 370 -397 504 -513 720 -622 1511 -901 2213 -782 964 165 1911 918 2571
2045 547 933 863 2055 941 3340 14 222 14 845 0 1055 -96 1481 -572 2885
-1315 3875 -567 756 -1258 1251 -1990 1425 -231 55 -504 78 -715 59z m110
-2984 l0 -2855 -1831 0 -1832 0 7 183 c32 854 161 1594 411 2342 258 775 600
1412 1050 1955 181 219 479 500 710 672 269 199 607 371 909 463 169 51 389
90 524 94 l52 1 0 -2855z m330 2841 c158 -22 289 -52 450 -106 837 -278 1598
-993 2149 -2017 311 -580 561 -1296 705 -2023 90 -453 134 -849 152 -1357 l7
-193 -1832 0 -1831 0 0 2855 0 2855 48 0 c26 0 94 -7 152 -14z m-330 -8694 l0
-2858 -102 8 c-443 36 -958 255 -1420 605 -308 233 -644 578 -894 918 -757
1031 -1194 2425 -1231 3928 l-6 257 1826 0 1827 0 0 -2858z m3790 2806 c0 -88
-19 -454 -30 -598 -97 -1230 -447 -2341 -1023 -3245 -468 -735 -1094 -1311
-1749 -1607 -154 -69 -377 -142 -528 -172 -121 -24 -316 -47 -325 -37 -3 2 -5
1288 -5 2858 l0 2853 1830 0 1830 0 0 -52z"/>
<path d="M4514 10656 c-18 -8 -47 -36 -65 -63 -18 -26 -86 -120 -152 -207 -65
-88 -125 -172 -135 -188 -9 -15 -19 -28 -22 -28 -3 1 -32 40 -65 88 -87 125
-190 228 -239 237 -62 12 -108 -8 -166 -73 -91 -101 -1090 -1414 -1090 -1433
0 -10 7 -25 16 -34 37 -36 59 -18 222 184 l157 195 65 12 c67 13 101 24 205
68 73 31 89 32 115 6 27 -27 26 -80 -5 -171 -31 -91 -30 -120 8 -133 39 -14
87 12 242 133 246 192 352 215 422 92 15 -25 33 -54 41 -63 25 -30 71 -21 146
27 38 25 76 45 85 45 9 0 66 -37 126 -81 129 -94 217 -140 273 -143 38 -2 45
-8 112 -89 72 -87 85 -96 121 -77 34 19 23 58 -44 149 -354 481 -437 596 -511
701 l-86 122 26 34 c44 57 81 48 280 -69 96 -57 140 -67 172 -40 19 16 21 23
12 58 -15 64 -13 135 5 141 9 4 39 -4 68 -17 37 -17 72 -23 125 -24 l73 -1 77
-77 c76 -76 105 -90 130 -65 31 31 13 59 -135 217 -82 86 -212 235 -289 331
-160 197 -175 213 -226 235 -45 18 -54 18 -94 1z m54 -163 c5 -10 12 -38 16
-63 6 -42 2 -51 -54 -142 -54 -87 -65 -99 -101 -109 -46 -14 -92 -3 -97 23 -2
8 19 45 47 81 27 37 66 97 87 134 20 37 42 74 47 81 14 18 45 15 55 -5z m-790
-196 c8 -9 7 -41 -4 -112 -14 -94 -33 -147 -84 -235 -16 -28 -20 -52 -20 -126
0 -103 -18 -169 -56 -205 -20 -19 -29 -21 -52 -13 -19 6 -28 17 -30 36 -7 62
-69 57 -119 -9 -34 -44 -104 -85 -139 -81 -68 8 -53 66 44 169 32 35 94 115
136 177 43 63 119 169 169 237 51 68 100 135 110 149 20 29 30 32 45 13z"/>
<path d="M6981 10902 c-7 -13 -4 -30 12 -63 19 -40 22 -62 23 -228 2 -101 5
-194 8 -207 8 -31 4 -30 -36 7 -98 91 -263 124 -298 59 -15 -27 -14 -28 38
-59 57 -36 76 -66 96 -154 9 -37 22 -81 31 -96 l14 -28 -37 12 c-53 18 -301
55 -370 55 -94 0 -141 -24 -126 -64 3 -8 26 -19 52 -26 63 -16 101 -40 197
-128 44 -41 104 -90 133 -110 l54 -36 -60 -12 c-133 -27 -245 -121 -228 -190
8 -29 30 -31 97 -7 54 19 50 20 184 -35 28 -12 59 -24 70 -27 19 -7 19 -8 -5
-23 -14 -9 -78 -68 -144 -132 -160 -155 -203 -225 -161 -260 13 -11 24 -7 68
23 60 41 124 62 237 77 44 6 105 20 136 30 76 27 78 26 50 -17 -59 -92 -73
-238 -26 -288 36 -39 56 -32 74 23 21 61 64 103 141 137 33 14 70 36 82 47
l23 22 -6 -45 c-9 -65 13 -331 32 -400 29 -105 94 -118 94 -20 1 56 30 129 97
238 28 46 59 105 69 133 18 50 34 65 34 32 0 -58 102 -191 167 -218 43 -18 56
-18 84 5 l23 18 -32 48 c-37 56 -41 105 -17 195 8 30 15 67 15 82 l0 27 23
-22 c32 -33 212 -159 277 -195 78 -43 124 -56 150 -42 30 16 24 43 -18 81 -49
43 -83 102 -122 208 -17 46 -46 112 -66 147 -20 35 -34 64 -32 64 1 0 28 -9
58 -21 117 -44 258 -29 304 34 28 38 13 60 -46 68 -61 9 -102 32 -135 76 -15
20 -45 56 -67 80 -37 41 -38 43 -15 43 31 0 189 42 307 82 108 37 169 81 158
115 -6 19 -13 21 -99 19 -82 -1 -104 3 -202 36 -60 20 -141 44 -180 54 -38 9
-74 19 -78 21 -5 3 9 14 30 25 114 60 201 208 163 279 -15 27 -42 24 -75 -11
-40 -42 -95 -58 -206 -62 l-95 -4 32 66 c82 168 140 349 129 400 -6 29 -35 47
-55 35 -6 -4 -21 -27 -34 -53 -26 -52 -60 -82 -186 -165 -47 -31 -107 -76
-135 -101 l-50 -44 0 87 c0 78 -3 93 -33 154 -36 72 -75 103 -117 93 -23 -6
-23 -9 -18 -79 l6 -72 -47 -65 c-25 -36 -53 -80 -62 -99 l-16 -34 -18 41 c-33
74 -158 271 -207 327 -46 53 -95 69 -112 37z m649 -507 c101 -27 180 -74 260
-154 117 -118 170 -245 170 -406 0 -162 -53 -288 -170 -405 -119 -120 -241
-170 -412 -170 -160 0 -280 51 -398 170 -123 122 -171 237 -171 410 0 102 16
171 58 255 71 140 216 259 366 300 69 18 228 19 297 0z"/>
<path d="M7348 10281 c-83 -27 -138 -62 -200 -129 -173 -187 -168 -463 11
-643 144 -143 351 -176 536 -85 168 83 264 251 253 441 -15 249 -215 436 -467
434 -45 0 -99 -8 -133 -18z"/>
<path d="M3930 6965 c-25 -8 -60 -28 -78 -45 -33 -30 -34 -30 -150 -30 -132 0
-165 -12 -202 -72 -34 -56 -19 -140 33 -196 l22 -24 -256 -252 c-235 -230
-258 -256 -278 -309 -45 -124 -13 -267 60 -267 34 0 55 24 362 407 120 150
222 275 227 278 19 12 31 -5 19 -27 -6 -12 -131 -184 -277 -382 -146 -199
-271 -375 -278 -393 -37 -86 3 -199 101 -292 57 -54 87 -67 138 -57 73 14 66
-2 309 716 66 195 125 361 130 368 17 21 38 14 38 -13 0 -14 -74 -262 -164
-553 -91 -290 -168 -539 -171 -553 -9 -36 10 -102 39 -137 34 -39 108 -77 197
-100 93 -25 141 -17 180 26 26 29 27 31 33 238 3 115 9 401 12 636 5 340 9
431 20 445 13 17 15 17 29 -1 12 -16 15 -62 16 -260 0 -133 4 -416 8 -629 8
-366 9 -390 28 -415 33 -44 84 -58 156 -43 150 31 244 94 267 180 11 42 7 58
-159 592 -94 302 -171 560 -171 573 0 32 14 40 32 18 8 -9 63 -161 123 -337
151 -447 232 -674 251 -703 25 -38 80 -56 129 -42 51 15 129 96 169 173 23 47
28 66 24 110 -2 29 -11 66 -19 82 -8 17 -135 193 -282 393 -148 200 -270 369
-274 377 -3 9 1 15 10 15 9 0 118 -127 243 -282 299 -373 330 -408 359 -408
50 0 94 107 80 197 -14 95 -38 126 -282 367 -129 126 -243 236 -254 244 -19
13 -19 14 11 55 60 82 60 164 0 222 -31 30 -33 30 -163 33 -130 3 -132 4 -162
32 -58 56 -146 72 -235 45z m-230 -220 c-35 -36 -68 -65 -72 -65 -4 0 -15 11
-24 25 -14 21 -14 30 -4 54 15 37 42 49 110 50 l54 1 -64 -65z m690 52 c34
-17 48 -59 30 -92 -7 -14 -18 -25 -24 -25 -7 0 -41 29 -76 65 l-64 65 54 0
c30 0 66 -6 80 -13z"/>
<path d="M6635 6830 c-79 -12 -143 -37 -155 -60 -6 -12 -10 -256 -10 -660 0
-678 1 -687 45 -704 9 -3 430 -6 936 -6 l920 0 24 25 25 24 0 661 0 660 -32
20 c-61 37 -131 45 -373 45 -182 -1 -244 -4 -298 -18 -98 -25 -160 -53 -198
-93 l-34 -35 -3 -553 c-2 -480 -1 -555 12 -565 12 -10 26 -8 72 13 31 14 92
33 137 42 161 33 490 4 597 -51 35 -18 40 -49 11 -65 -27 -14 -1705 -14 -1732
0 -28 15 -24 47 9 64 113 58 450 86 608 51 44 -10 103 -28 133 -41 41 -18 57
-21 67 -13 12 9 14 109 14 558 0 588 2 566 -50 609 -30 26 -116 62 -185 77
-83 19 -448 29 -540 15z"/>
<path d="M6266 6534 c-14 -14 -16 -86 -16 -649 l0 -634 24 -28 24 -28 1142 -3
1141 -2 30 29 29 29 0 641 0 641 -25 12 c-18 8 -35 9 -53 2 l-27 -9 -5 -599
-5 -598 -24 -19 c-23 -19 -50 -19 -1063 -17 l-1040 3 -19 24 c-18 22 -19 47
-19 610 0 443 -3 590 -12 599 -17 17 -64 15 -82 -4z"/>
<path d="M9020 13239 c-177 -24 -377 -165 -453 -319 -28 -57 -32 -74 -32 -150
0 -76 3 -92 33 -152 45 -92 132 -177 228 -225 66 -32 87 -37 164 -41 71 -4
103 0 157 17 159 49 319 178 386 311 18 37 22 62 22 135 0 82 -3 97 -32 155
-95 191 -279 295 -473 269z m205 -113 c65 -31 117 -86 151 -160 54 -118 12
-239 -126 -369 -222 -209 -447 -200 -566 23 -13 24 -19 56 -19 105 0 61 5 78
34 133 59 109 227 248 340 282 54 17 134 11 186 -14z"/>
<path d="M2202 12994 c-100 -123 -116 -156 -90 -182 9 -9 21 -3 53 28 l40 40
275 -221 c151 -121 286 -232 300 -245 l25 -24 -24 -43 c-23 -43 -26 -87 -5
-94 6 -2 52 47 102 109 49 62 99 122 111 132 22 20 29 70 11 81 -6 4 -33 -12
-60 -35 -35 -29 -54 -39 -63 -33 -113 86 -587 477 -585 481 2 4 14 28 27 54
20 39 22 49 11 62 -7 9 -16 16 -20 16 -4 0 -53 -57 -108 -126z"/>
<path d="M1917 12573 c-126 -165 -159 -274 -121 -402 21 -71 90 -142 156 -160
83 -23 144 -2 274 94 49 37 107 76 129 88 112 57 223 -3 233 -127 4 -46 0 -62
-24 -106 -33 -61 -85 -107 -131 -116 -19 -4 -52 1 -83 11 -28 9 -54 14 -58 10
-4 -4 -7 -26 -7 -51 0 -61 35 -95 103 -102 65 -6 109 16 169 82 127 141 150
341 53 474 -37 51 -125 96 -189 96 -62 0 -138 -38 -231 -113 -90 -73 -143
-101 -194 -101 -116 0 -167 117 -103 235 16 28 43 68 61 89 l34 39 34 -20 c19
-11 46 -28 61 -37 25 -17 26 -17 37 4 20 37 3 66 -64 114 -36 25 -71 49 -79
52 -10 3 -30 -15 -60 -53z"/>
<path d="M9602 12386 c-61 -20 -107 -58 -132 -112 -22 -43 -22 -53 -15 -163
19 -255 11 -304 -56 -352 -38 -27 -119 -30 -166 -5 -63 32 -113 123 -113 203
0 43 4 50 49 94 48 46 49 49 33 69 -57 69 -179 22 -198 -75 -25 -135 105 -340
251 -394 103 -39 204 -23 283 44 69 58 88 138 67 281 -27 175 -17 248 39 292
44 34 81 37 133 10 59 -29 95 -75 127 -160 l26 -68 -48 -24 c-69 -37 -73 -41
-66 -60 15 -38 50 -38 140 1 100 43 99 35 29 181 -92 192 -240 284 -383 238z"/>
<path d="M1552 11693 c-92 -33 -185 -171 -257 -388 -44 -130 -18 -192 40 -96
l30 50 345 -153 345 -153 1 -59 c0 -79 2 -84 20 -84 8 0 22 17 31 38 8 20 39
90 69 155 57 126 62 143 41 171 -12 17 -17 13 -53 -43 -25 -39 -44 -60 -54
-58 -45 11 -260 114 -260 124 0 23 34 83 49 87 9 3 102 23 206 45 274 58 304
71 346 153 20 40 25 93 9 103 -5 3 -25 -5 -42 -18 -18 -14 -44 -30 -57 -37
-25 -13 -443 -121 -448 -116 -2 1 -7 26 -13 54 -13 73 -42 123 -95 170 -77 68
-164 87 -253 55z m153 -142 c127 -59 162 -158 105 -288 -10 -24 -23 -43 -28
-43 -8 0 -371 158 -380 165 -7 6 43 104 66 129 34 36 97 66 142 66 19 0 62
-13 95 -29z"/>
<path d="M9405 11203 c3 -10 26 -74 51 -143 54 -151 55 -154 84 -158 22 -4 22
-2 16 45 -4 26 -10 58 -12 69 -5 21 -2 22 141 29 80 4 148 6 149 4 3 -4 106
-288 106 -293 0 -4 -217 -176 -223 -176 -3 0 -21 23 -41 50 -23 31 -43 50 -56
50 -26 0 -26 -3 14 -107 18 -48 43 -119 56 -158 27 -83 35 -95 66 -95 14 0 22
5 20 13 -3 6 -7 31 -10 54 l-6 42 342 292 c189 160 347 295 352 300 14 13 -4
80 -29 105 l-24 24 -449 0 -450 0 -26 35 c-19 24 -35 35 -53 35 -20 0 -24 -4
-18 -17z m915 -137 c0 -3 -232 -190 -306 -248 -8 -6 -24 26 -53 107 -22 64
-41 120 -41 125 0 5 69 11 153 13 83 1 173 4 200 5 26 1 47 0 47 -2z"/>
<path d="M1155 10937 c-22 -64 -155 -513 -160 -541 -8 -38 6 -66 31 -66 7 0
22 20 33 45 11 25 23 45 27 45 7 0 359 -107 597 -181 l127 -40 0 -45 c0 -51
14 -84 35 -84 8 0 15 2 15 4 0 2 43 144 95 316 52 172 95 314 95 315 0 2 -45
29 -101 61 -81 46 -103 54 -110 43 -22 -35 -7 -60 73 -123 l47 -37 -55 -156
c-30 -85 -56 -159 -59 -163 -4 -6 -311 83 -322 93 -4 4 63 227 71 235 3 3 25
0 47 -7 34 -10 43 -10 50 1 10 15 2 48 -15 64 -17 18 -205 77 -222 70 -28 -11
-13 -59 23 -76 18 -8 33 -21 33 -28 0 -19 -70 -232 -77 -232 -9 0 -308 92
-313 97 -2 2 18 69 45 149 l50 145 71 -7 c61 -5 72 -4 77 11 11 27 -10 53 -51
65 -118 32 -153 38 -157 27z"/>
<path d="M10582 10358 l3 -63 -355 -77 c-195 -42 -363 -77 -372 -77 -11 -1
-27 17 -43 49 -20 40 -30 50 -50 50 -21 0 -24 -4 -20 -22 3 -13 19 -86 35
-163 28 -138 41 -165 78 -165 11 0 13 15 10 73 l-3 72 290 62 c159 34 291 61
292 59 1 -1 -120 -141 -268 -311 -149 -171 -277 -324 -285 -342 -11 -26 -12
-39 -1 -70 8 -23 18 -37 27 -36 15 2 765 160 806 170 18 4 24 -2 34 -31 13
-41 43 -66 69 -59 18 4 17 12 -10 141 -30 139 -46 172 -84 172 -20 0 -21 -4
-17 -60 2 -33 2 -60 0 -60 -3 0 -141 -29 -308 -65 -167 -36 -305 -63 -307 -62
-1 2 130 157 291 344 l294 341 -17 80 c-20 91 -33 112 -68 112 -24 0 -25 -2
-21 -62z"/>
<path d="M946 10228 c-23 -106 -46 -236 -46 -257 0 -29 16 -51 36 -51 7 0 20
23 29 51 9 27 20 49 24 47 37 -15 601 -322 601 -327 0 -6 -647 -102 -678 -101
-9 0 -11 13 -6 50 7 54 -12 100 -41 100 -8 0 -15 -1 -15 -2 0 -2 -13 -70 -30
-153 -35 -179 -35 -180 -10 -205 28 -28 35 -25 49 21 7 22 17 42 24 44 7 2
212 32 457 66 244 33 448 63 452 65 12 8 -3 67 -27 104 -18 29 -85 70 -383
235 l-361 200 2 48 c2 40 -2 52 -22 68 -31 25 -50 24 -55 -3z"/>
<path d="M10806 9282 l-7 -60 -52 -6 c-29 -3 -185 -17 -347 -31 -162 -14 -309
-27 -327 -29 -29 -4 -33 -2 -44 32 -17 55 -37 82 -60 82 -18 0 -21 -4 -16 -28
3 -16 11 -104 17 -198 19 -296 51 -403 143 -496 203 -202 629 -151 752 92 44
88 58 170 51 310 -10 221 -45 382 -83 388 -18 3 -21 -4 -27 -56z m34 -276 c0
-46 -5 -107 -10 -136 -39 -203 -189 -313 -430 -313 -72 0 -95 4 -145 27 -73
33 -128 84 -163 151 -24 46 -27 60 -27 170 l0 120 355 31 c195 17 370 32 388
33 l32 1 0 -84z"/>
<path d="M766 9238 c-6 -29 -36 -280 -36 -301 0 -19 27 -47 45 -47 7 0 15 17
19 43 4 23 10 47 14 54 6 9 94 2 372 -32 201 -25 373 -45 382 -45 13 0 18 -13
24 -60 7 -61 23 -86 47 -77 10 4 16 33 21 89 4 45 13 121 20 168 14 92 8 130
-22 130 -14 0 -23 -14 -35 -60 -16 -55 -20 -60 -45 -60 -27 0 -677 77 -718 85
-18 4 -22 14 -27 61 -6 54 -17 74 -44 74 -7 0 -15 -10 -17 -22z"/>
<path d="M665 8665 c-10 -154 1 -205 45 -205 19 0 30 27 30 78 l0 34 318 -7
c174 -4 318 -9 320 -10 2 -2 -162 -124 -363 -271 l-367 -269 4 -87 c4 -89 16
-118 48 -118 13 0 20 14 30 62 l12 61 180 -6 c100 -4 271 -7 380 -7 150 0 200
-3 202 -12 3 -7 10 -33 18 -58 10 -33 19 -46 35 -48 21 -3 22 -1 25 150 4 167
0 193 -31 201 -18 4 -21 -2 -31 -52 -6 -31 -13 -62 -15 -68 -5 -15 -60 -16
-377 -6 -120 3 -215 9 -213 13 3 4 147 110 321 236 175 126 330 242 346 258
25 25 29 35 26 75 l-3 46 -340 7 c-187 4 -380 9 -430 10 l-89 3 -8 44 c-8 45
-20 61 -50 61 -14 0 -17 -18 -23 -115z"/>
<path d="M10049 8298 c-2 -6 -25 -663 -23 -666 5 -8 218 -61 226 -56 13 8 10
37 -7 60 -8 12 -41 31 -75 44 -33 12 -62 26 -64 29 -5 8 22 333 29 339 2 2 79
1 171 -3 l167 -7 -7 -97 c-3 -53 -6 -110 -6 -127 l0 -31 -50 5 c-44 4 -50 2
-50 -15 0 -52 52 -70 206 -72 66 -1 78 7 63 46 -6 17 -19 24 -50 29 l-42 7 7
81 c3 45 6 102 6 127 l0 47 168 -5 c92 -3 168 -6 169 -7 1 -1 -3 -72 -9 -158
l-11 -157 -69 -7 c-66 -6 -68 -7 -68 -35 0 -43 28 -53 129 -45 46 3 86 8 89
10 2 2 8 127 14 277 11 295 6 349 -32 349 -19 0 -26 -15 -32 -70 l-3 -25 -170
1 c-93 0 -268 4 -388 9 l-217 7 -7 41 c-6 39 -32 77 -53 77 -5 0 -10 -1 -11
-2z"/>
<path d="M665 7640 c-11 -18 16 -284 31 -308 23 -35 38 -22 44 39 l5 54 287
19 c324 22 366 19 431 -35 63 -52 79 -96 75 -205 -2 -75 -7 -98 -24 -121 -56
-76 -133 -96 -449 -118 -310 -21 -281 -25 -294 37 -13 60 -26 78 -53 78 -18 0
-19 -6 -13 -97 12 -182 22 -246 41 -260 28 -21 39 -10 42 40 l3 46 52 5 c29 3
156 13 282 22 265 18 346 33 412 77 73 50 97 106 101 239 7 212 -64 337 -223
393 -74 26 -176 29 -420 11 -276 -20 -265 -20 -265 3 0 35 -21 79 -41 84 -10
3 -21 1 -24 -3z"/>
<path d="M10100 7441 c-98 -51 -147 -251 -100 -403 37 -120 128 -202 239 -215
118 -14 194 39 276 193 86 159 123 194 209 194 43 0 53 -4 82 -35 19 -20 36
-51 40 -71 9 -49 -2 -154 -20 -199 l-15 -36 -53 7 c-80 11 -82 10 -86 -9 -8
-41 23 -63 113 -82 51 -11 89 -15 94 -9 5 5 19 50 31 99 52 210 9 369 -117
437 -137 74 -260 24 -346 -140 -100 -189 -181 -248 -281 -203 -67 29 -101 87
-100 166 1 71 33 147 74 177 15 11 49 21 80 23 52 4 55 5 53 30 -6 81 -93 119
-173 76z"/>
<path d="M2775 2691 c-164 -76 -146 -315 28 -362 144 -38 277 94 237 236 -32
115 -159 175 -265 126z"/>
<path d="M8636 2695 c-47 -17 -94 -59 -112 -102 -17 -39 -18 -111 -3 -150 24
-64 109 -123 179 -123 70 0 155 59 179 123 15 39 14 111 -3 150 -25 62 -113
118 -181 117 -11 -1 -37 -7 -59 -15z"/>
<path d="M7263 1930 c-223 -130 -293 -177 -293 -197 0 -4 4 -14 9 -22 8 -12
16 -12 56 3 26 10 50 14 55 10 4 -5 92 -154 194 -332 l187 -323 -36 -40 c-34
-38 -45 -84 -20 -84 6 0 139 74 296 164 l286 164 -35 111 c-19 61 -36 113 -38
115 -2 2 -15 -4 -30 -14 -28 -18 -29 -29 -11 -168 1 -14 -33 -37 -150 -98
l-151 -80 -55 93 c-30 51 -69 118 -86 149 l-32 57 109 61 c60 34 111 61 114
61 3 0 13 -18 23 -40 10 -22 21 -40 25 -40 15 0 40 38 40 60 0 31 -98 210
-115 210 -8 0 -21 -10 -29 -22 -13 -19 -13 -25 0 -56 8 -19 13 -36 12 -37 -17
-13 -221 -126 -223 -123 -8 8 -165 281 -165 287 0 4 62 39 138 78 l138 72 43
-54 c41 -51 46 -54 65 -42 34 23 29 47 -27 134 l-53 82 -241 -139z"/>
<path d="M3970 1973 c-164 -45 -288 -171 -358 -365 -21 -58 -27 -91 -27 -163
0 -82 3 -96 33 -157 51 -105 161 -188 312 -237 52 -17 190 -43 196 -37 16 15
124 153 124 158 0 13 -38 28 -57 22 -10 -4 -39 -27 -64 -51 l-47 -45 -56 12
c-120 25 -232 104 -277 196 -77 161 51 484 226 570 48 23 64 26 138 23 72 -4
93 -9 158 -41 40 -21 91 -52 113 -71 l38 -33 -36 -57 c-38 -59 -39 -71 -8 -79
30 -8 57 12 113 86 l53 70 -51 45 c-153 137 -360 198 -523 154z"/>
<path d="M4606 1684 c-24 -24 -20 -29 37 -47 l54 -17 -88 -358 c-49 -196 -91
-367 -94 -379 -4 -19 -13 -22 -67 -25 -44 -2 -64 -8 -72 -20 -5 -9 -8 -20 -5
-23 10 -9 319 -85 348 -85 25 0 51 15 51 30 0 4 -32 19 -70 34 -55 22 -70 32
-66 45 3 9 22 84 42 166 20 83 40 154 45 159 8 8 466 -99 482 -114 4 -4 -11
-84 -35 -178 l-43 -172 -62 0 c-51 0 -64 -3 -73 -19 -5 -11 -6 -22 -2 -25 4
-3 83 -23 175 -46 131 -33 170 -39 187 -30 34 18 23 35 -39 62 l-59 26 95 379
95 380 54 -5 c54 -4 84 7 84 32 0 14 -297 89 -332 84 -14 -2 -24 -11 -26 -24
-2 -17 5 -23 43 -34 25 -7 47 -16 49 -19 3 -5 -65 -284 -78 -317 -4 -10 -59 1
-238 47 -128 33 -238 61 -244 63 -8 3 1 55 29 166 l40 162 54 -6 c59 -7 96 6
91 31 -2 11 -46 26 -158 54 -177 44 -183 45 -204 23z"/>
<path d="M6460 1593 c-80 -24 -153 -52 -163 -61 -18 -16 -20 -58 -2 -55 6 0
30 4 55 8 l45 6 109 -358 c60 -197 111 -363 113 -370 3 -6 -16 -25 -42 -43
-34 -24 -45 -37 -43 -53 2 -16 9 -21 23 -19 38 7 610 184 618 192 8 7 -8 219
-18 228 -9 10 -53 -9 -60 -25 -3 -10 -9 -49 -12 -86 -5 -57 -10 -70 -27 -78
-40 -16 -307 -82 -312 -76 -7 6 -224 707 -224 722 0 6 17 17 38 24 59 21 82
39 82 66 0 33 -7 32 -180 -22z"/>
<path d="M5882 1480 c-124 -8 -152 -17 -152 -50 0 -13 12 -19 51 -23 29 -4 53
-8 55 -10 4 -3 44 -691 44 -748 0 -23 -6 -28 -47 -39 -49 -13 -90 -47 -76 -61
4 -4 88 -5 187 -1 159 7 180 10 192 27 22 30 12 39 -56 48 -36 4 -65 9 -66 10
-4 3 -45 770 -42 773 2 1 28 8 58 16 49 11 55 16 58 41 4 31 17 30 -206 17z"/>
<path d="M31405 9684 c-298 -34 -438 -79 -626 -203 -121 -79 -189 -138 -257
-224 -136 -172 -211 -440 -183 -658 37 -287 173 -469 534 -711 67 -45 295
-181 507 -301 212 -121 410 -237 440 -257 79 -55 135 -116 166 -184 53 -116
18 -268 -80 -352 -49 -42 -125 -80 -197 -100 -181 -48 -492 -13 -734 83 -104
41 -342 155 -431 206 l-61 35 -142 -310 c-78 -171 -140 -312 -139 -314 2 -1
111 -52 243 -112 366 -167 464 -200 710 -239 166 -27 518 -24 679 6 402 73
666 249 802 536 58 123 84 233 91 385 11 257 -66 495 -213 660 -134 148 -475
375 -989 655 -218 119 -272 153 -331 207 -66 61 -95 117 -101 192 -13 162 90
276 299 333 99 28 341 25 482 -5 168 -36 404 -116 642 -218 13 -6 278 582 271
601 -6 13 -216 106 -347 153 -189 68 -377 112 -569 131 -94 10 -394 13 -466 5z"/>
<path d="M13293 8408 c3 -1074 6 -1237 20 -1334 47 -316 134 -503 309 -670
295 -280 685 -400 1243 -381 430 15 704 98 963 294 261 196 383 431 422 812 6
65 10 542 10 1302 l0 1199 -335 0 -334 0 -3 -1187 -3 -1188 -23 -80 c-73 -265
-234 -429 -488 -496 -110 -29 -350 -37 -490 -15 -373 57 -574 268 -614 646 -6
57 -10 541 -10 1208 l0 1112 -336 0 -335 0 4 -1222z"/>
<path d="M17147 7868 c-350 -970 -637 -1766 -637 -1771 0 -4 158 -6 352 -5
l351 3 146 435 146 435 592 3 592 2 40 -127 c22 -71 85 -267 140 -438 l99
-310 351 -3 c349 -2 352 -2 346 18 -3 11 -291 806 -639 1767 l-633 1748 -304
3 -304 2 -638 -1762z m1153 315 c110 -342 200 -627 200 -632 0 -8 -127 -11
-405 -11 -223 0 -405 3 -405 7 0 6 379 1204 396 1252 2 8 6 12 9 9 2 -2 94
-284 205 -625z"/>
<path d="M20040 7860 l0 -1770 323 2 322 3 5 1285 c3 707 9 1272 13 1257 24
-86 226 -405 907 -1436 l755 -1140 358 -1 357 0 0 1785 0 1785 -320 0 -320 0
0 -1307 c-1 -1140 -2 -1306 -15 -1289 -8 10 -22 42 -31 70 -10 28 -34 87 -55
131 -21 44 -370 600 -776 1235 l-739 1155 -392 3 -392 2 0 -1770z"/>
<path d="M23890 7860 l0 -1771 793 4 c661 3 809 6 897 20 335 51 583 140 805
290 114 78 300 263 387 387 141 199 251 455 306 710 25 116 26 142 26 370 0
228 -1 254 -26 371 -81 376 -251 687 -514 939 -254 243 -529 366 -959 431 -55
8 -331 13 -897 16 l-818 4 0 -1771z m1554 1155 c202 -27 366 -80 486 -156 202
-130 356 -377 425 -684 26 -113 32 -438 10 -567 -43 -259 -139 -454 -302 -609
-133 -127 -294 -213 -496 -264 -149 -37 -252 -45 -624 -45 l-353 0 0 1170 0
1170 373 0 c267 0 403 -4 481 -15z"/>
<path d="M27570 7860 l0 -1770 1115 0 1115 0 0 285 0 285 -775 0 -775 0 0 475
0 475 605 0 605 0 0 285 0 285 -605 0 -605 0 0 440 0 440 740 0 740 0 0 285 0
285 -1080 0 -1080 0 0 -1770z"/>
</g>
</svg>
